<svg xmlns="http://www.w3.org/2000/svg" width="24" height="25" viewBox="0 0 24 25" fill="none">
  <path d="M10.8751 12.5C10.8751 12.7984 10.9937 13.0845 11.2046 13.2955C11.4156 13.5065 11.7018 13.625 12.0001 13.625C12.2985 13.625 12.5846 13.5065 12.7956 13.2955C13.0066 13.0845 13.1251 12.7984 13.1251 12.5C13.1251 12.2016 13.0066 11.9155 12.7956 11.7045C12.5846 11.4935 12.2985 11.375 12.0001 11.375C11.7018 11.375 11.4156 11.4935 11.2046 11.7045C10.9937 11.9155 10.8751 12.2016 10.8751 12.5ZM15.5626 12.5C15.5626 12.7984 15.6812 13.0845 15.8921 13.2955C16.1031 13.5065 16.3893 13.625 16.6876 13.625C16.986 13.625 17.2721 13.5065 17.4831 13.2955C17.6941 13.0845 17.8126 12.7984 17.8126 12.5C17.8126 12.2016 17.6941 11.9155 17.4831 11.7045C17.2721 11.4935 16.986 11.375 16.6876 11.375C16.3893 11.375 16.1031 11.4935 15.8921 11.7045C15.6812 11.9155 15.5626 12.2016 15.5626 12.5ZM6.18763 12.5C6.18763 12.7984 6.30616 13.0845 6.51714 13.2955C6.72812 13.5065 7.01426 13.625 7.31263 13.625C7.611 13.625 7.89715 13.5065 8.10813 13.2955C8.31911 13.0845 8.43763 12.7984 8.43763 12.5C8.43763 12.2016 8.31911 11.9155 8.10813 11.7045C7.89715 11.4935 7.611 11.375 7.31263 11.375C7.01426 11.375 6.72812 11.4935 6.51714 11.7045C6.30616 11.9155 6.18763 12.2016 6.18763 12.5ZM21.6845 8.43125C21.1548 7.17266 20.3954 6.04297 19.4275 5.07266C18.4663 4.10796 17.3252 3.34114 16.0689 2.81563C14.7798 2.27422 13.4111 2 12.0001 2H11.9533C10.5329 2.00703 9.15716 2.28828 7.86341 2.84141C6.61785 3.37232 5.48747 4.14049 4.53529 5.10312C3.5767 6.07109 2.82435 7.19609 2.30404 8.45C1.76498 9.74844 1.4931 11.1289 1.50013 12.5492C1.50809 14.1769 1.89316 15.7806 2.62513 17.2344V20.7969C2.62513 21.0828 2.73872 21.357 2.94091 21.5592C3.1431 21.7614 3.41732 21.875 3.70326 21.875H7.2681C8.72192 22.607 10.3256 22.992 11.9533 23H12.0025C13.4064 23 14.7681 22.7281 16.0501 22.1961C17.3001 21.6768 18.4369 20.919 19.397 19.9648C20.365 19.0063 21.1267 17.8859 21.6587 16.6367C22.2119 15.343 22.4931 13.9672 22.5001 12.5469C22.5072 11.1195 22.2306 9.73438 21.6845 8.43125ZM18.1431 18.6969C16.5001 20.3234 14.3204 21.2188 12.0001 21.2188H11.9603C10.547 21.2117 9.1431 20.8602 7.90326 20.1992L7.70638 20.0938H4.40638V16.7938L4.30091 16.5969C3.63998 15.357 3.28841 13.9531 3.28138 12.5398C3.27201 10.2031 4.16498 8.00937 5.80326 6.35703C7.4392 4.70469 9.62591 3.79062 11.9626 3.78125H12.0025C13.1744 3.78125 14.3111 4.00859 15.3822 4.45859C16.4275 4.89687 17.365 5.52734 18.1712 6.33359C18.9751 7.1375 19.6079 8.07734 20.0462 9.12266C20.5009 10.2055 20.7283 11.3539 20.7236 12.5398C20.7095 14.8742 19.7931 17.0609 18.1431 18.6969Z" fill="#2E151B" fill-opacity="0.7"/>
</svg>