<svg xmlns="http://www.w3.org/2000/svg" width="24" height="26" viewBox="0 0 24 26" fill="none">
  <path d="M12.6144 22.1342H3.99346C3.44463 22.1342 3 21.6834 3 21.1275V4.9026C3 4.34657 3.4447 3.896 3.99346 3.896H20.0066C20.5552 3.896 21 4.34657 21 4.9026V21.1275C21 21.6835 20.5552 22.1342 20.0066 22.1342H15.4197V15.0714H17.7594L18.1098 12.3188H15.4197V10.5615C15.4197 9.76462 15.6381 9.22155 16.766 9.22155L18.2045 9.22091V6.75905C17.9557 6.7255 17.1018 6.65056 16.1083 6.65056C14.0343 6.65056 12.6144 7.9333 12.6144 10.2889V12.3188H10.2687V15.0714H12.6144V22.1342Z" fill="white"/>
</svg>