<svg xmlns="http://www.w3.org/2000/svg" width="24" height="26" viewBox="0 0 24 26" fill="none">
  <path fill-rule="evenodd" clip-rule="evenodd" d="M11.8078 14.6226C10.9134 14.6226 8.71698 14.6255 8.71698 14.6255V12.4185H14.2075C14.59 15.089 13.4364 19.0948 8.71698 19.0948C5.55956 19.0948 3 16.5997 3 13.522C3 10.4442 5.55956 7.94922 8.71698 7.94922C10.1985 7.94922 11.5484 8.49855 12.5641 9.39968C11.777 10.1242 11.5247 10.4004 11.3103 10.635C11.1988 10.7571 11.0976 10.8679 10.9366 11.0248C10.3491 10.5512 9.70868 10.2114 8.71698 10.2114C6.8413 10.2114 5.37736 11.6936 5.37736 13.522C5.37736 15.3504 6.8413 16.8325 8.71698 16.8325C10.5704 16.8325 11.3235 16.0534 11.8078 14.6226ZM19.0189 10.5977V12.5288H21V13.9082H19.0189V15.8946H17.6038V13.9082H15.566V12.5288H17.6038V10.5977H19.0189Z" fill="white"/>
</svg>