<svg xmlns="http://www.w3.org/2000/svg" width="24" height="26" viewBox="0 0 24 26" fill="none">
  <path fill-rule="evenodd" clip-rule="evenodd" d="M12 3.896C9.55575 3.896 9.24926 3.90649 8.28931 3.95087C7.33137 3.99514 6.67712 4.14931 6.10466 4.37475C5.51283 4.60776 5.01092 4.91958 4.51055 5.42653C4.01021 5.93353 3.70247 6.44208 3.47251 7.04174C3.25001 7.62178 3.09785 8.28468 3.05416 9.2553C3.01036 10.2279 3 10.5385 3 13.0151C3 15.4917 3.01036 15.8022 3.05416 16.7749C3.09785 17.7455 3.25001 18.4084 3.47251 18.9884C3.70247 19.5881 4.01021 20.0967 4.51055 20.6036C5.01092 21.1106 5.51283 21.4224 6.10466 21.6555C6.67712 21.8809 7.33137 22.035 8.28931 22.0793C9.24926 22.1237 9.55575 22.1342 12 22.1342C14.4443 22.1342 14.7507 22.1237 15.7107 22.0793C16.6686 22.035 17.3229 21.8809 17.8953 21.6555C18.4872 21.4224 18.9891 21.1106 19.4895 20.6036C19.9898 20.0967 20.2975 19.5881 20.5275 18.9884C20.75 18.4084 20.9021 17.7455 20.9458 16.7749C20.9896 15.8022 21 15.4917 21 13.0151C21 10.5385 20.9896 10.2279 20.9458 9.2553C20.9021 8.28468 20.75 7.62178 20.5275 7.04174C20.2975 6.44208 19.9898 5.93353 19.4895 5.42653C18.9891 4.91958 18.4872 4.60776 17.8953 4.37475C17.3229 4.14931 16.6686 3.99514 15.7107 3.95087C14.7507 3.90649 14.4443 3.896 12 3.896ZM12 5.53906C14.4031 5.53906 14.6878 5.54837 15.6368 5.59224C16.5143 5.63278 16.9908 5.78134 17.3079 5.90622C17.728 6.07165 18.0279 6.26926 18.3428 6.58838C18.6577 6.90747 18.8528 7.21125 19.016 7.6369C19.1393 7.95823 19.2859 8.44108 19.3259 9.33019C19.3692 10.2918 19.3784 10.5802 19.3784 13.0151C19.3784 15.45 19.3692 15.7384 19.3259 16.7C19.2859 17.5891 19.1393 18.0719 19.016 18.3933C18.8528 18.8189 18.6577 19.1227 18.3428 19.4418C18.0279 19.7609 17.728 19.9585 17.3079 20.124C16.9908 20.2488 16.5143 20.3974 15.6368 20.4379C14.6879 20.4818 14.4033 20.4911 12 20.4911C9.59672 20.4911 9.31213 20.4818 8.36322 20.4379C7.48573 20.3974 7.00919 20.2488 6.69205 20.124C6.27196 19.9585 5.97215 19.7609 5.65723 19.4418C5.3423 19.1227 5.14724 18.8189 4.98398 18.3933C4.86072 18.0719 4.71411 17.5891 4.67409 16.7C4.63079 15.7384 4.62161 15.45 4.62161 13.0151C4.62161 10.5802 4.63079 10.2918 4.67409 9.33019C4.71411 8.44108 4.86072 7.95823 4.98398 7.6369C5.14724 7.21125 5.34227 6.90747 5.65723 6.58838C5.97215 6.26926 6.27196 6.07165 6.69205 5.90622C7.00919 5.78134 7.48573 5.63278 8.36322 5.59224C9.31224 5.54837 9.5969 5.53906 12 5.53906ZM7.37839 13.0151C7.37839 10.4288 9.44754 8.33231 12 8.33231C14.5525 8.33231 16.6216 10.4288 16.6216 13.0151C16.6216 15.6013 14.5525 17.6979 12 17.6979C9.44754 17.6979 7.37839 15.6013 7.37839 13.0151ZM12 16.0548C10.3431 16.0548 9 14.6939 9 13.0151C9 11.3363 10.3431 9.9754 12 9.9754C13.6569 9.9754 15 11.3363 15 13.0151C15 14.6939 13.6569 16.0548 12 16.0548ZM16.8042 9.24158C17.4007 9.24158 17.8842 8.75167 17.8842 8.14731C17.8842 7.54295 17.4007 7.05301 16.8042 7.05301C16.2078 7.05301 15.7242 7.54295 15.7242 8.14731C15.7242 8.75167 16.2078 9.24158 16.8042 9.24158Z" fill="white"/>
</svg>