<svg xmlns="http://www.w3.org/2000/svg" width="24" height="26" viewBox="0 0 24 26" fill="none">
  <path fill-rule="evenodd" clip-rule="evenodd" d="M5.11877 8.73035H5.09337C3.82338 8.73035 3 7.88847 3 6.82132C3 5.73341 3.84772 4.90918 5.14311 4.90918C6.43744 4.90918 7.2333 5.73134 7.2587 6.81821C7.2587 7.88535 6.43744 8.73035 5.11877 8.73035ZM21 21.1209H17.0218V15.4218C17.0218 13.9301 16.3995 12.9118 15.031 12.9118C13.9844 12.9118 13.4023 13.599 13.1314 14.2613C13.0419 14.4706 13.0435 14.7523 13.0452 15.0427V15.0427C13.0454 15.0821 13.0456 15.1217 13.0456 15.1613V21.1209H9.10443C9.10443 21.1209 9.15523 11.0256 9.10443 10.1079H13.0456V11.8363C13.2785 11.0806 14.5379 10.002 16.5476 10.002C19.041 10.002 21 11.5861 21 14.9973V21.1209ZM6.96237 10.1079H3.45401V21.1209H6.96237V10.1079Z" fill="white"/>
</svg>