<svg xmlns="http://www.w3.org/2000/svg" width="24" height="24" viewBox="0 0 24 24" fill="none">
  <path d="M24 2.84375C23.0997 3.33272 22.1472 3.65486 21.1725 3.8C22.1968 3.05024 22.9672 1.85911 23.339 0.450009C22.3705 1.15788 21.3128 1.65455 20.211 1.91875C19.747 1.31096 19.1891 0.827448 18.571 0.4976C17.9529 0.167751 17.2876 -0.00154208 16.6155 1.0584e-05C13.8945 1.0584e-05 11.6925 2.7125 11.6925 6.05624C11.6906 6.52134 11.7332 6.98506 11.8195 7.43749C9.86835 7.32315 7.95776 6.70098 6.20999 5.61078C4.46222 4.52058 2.91574 2.98635 1.6695 1.10626C1.23229 2.02758 1.00107 3.07878 1 4.15C1 6.24999 1.8765 8.10624 3.2 9.19373C2.41586 9.17047 1.6478 8.91105 0.961 8.43748V8.51248C0.961 11.45 2.661 13.8937 4.911 14.45C4.48789 14.591 4.05188 14.6624 3.614 14.6625C3.30329 14.6631 2.99328 14.6255 2.6885 14.55C3.314 16.9562 5.1345 18.7062 7.291 18.7562C5.53869 20.4443 3.38731 21.3567 1.175 21.3499C0.782309 21.3492 0.389983 21.32 0 21.2624C2.25059 23.0588 4.86672 24.009 7.537 23.9999C16.605 23.9999 21.559 14.7687 21.559 6.76249C21.559 6.49999 21.5535 6.23749 21.5435 5.98124C22.505 5.12628 23.3369 4.06382 24 2.84375Z" fill="white" fill-opacity="0.8"/>
</svg>