<svg xmlns="http://www.w3.org/2000/svg" width="24" height="26" viewBox="0 0 24 26" fill="none">
  <path d="M21 7.72208C20.3386 8.02726 19.6265 8.23364 18.8796 8.32585C19.6424 7.85162 20.2277 7.09965 20.5034 6.20388C19.7892 6.64298 19 6.96243 18.1569 7.13368C17.4849 6.3883 16.5246 5.92285 15.4617 5.92285C13.4237 5.92285 11.7702 7.64085 11.7702 9.75952C11.7702 10.0603 11.8019 10.3523 11.8653 10.6333C8.79609 10.4731 6.07554 8.94718 4.25304 6.62322C3.93502 7.19186 3.7533 7.85162 3.7533 8.55418C3.7533 9.88467 4.40518 11.0593 5.3962 11.7476C4.79186 11.7289 4.22134 11.5544 3.72266 11.2689V11.3161C3.72266 13.1758 4.99577 14.7269 6.68621 15.0782C6.37665 15.1682 6.05018 15.2132 5.71315 15.2132C5.47544 15.2132 5.243 15.1901 5.01796 15.1451C5.48811 16.6688 6.85103 17.7787 8.46751 17.8083C7.20391 18.838 5.61067 19.4516 3.88114 19.4516C3.5832 19.4516 3.28843 19.4341 3 19.399C4.63444 20.4857 6.57633 21.1213 8.66086 21.1213C15.4543 21.1213 19.168 15.2758 19.168 10.2052C19.168 10.0384 19.1648 9.87149 19.1585 9.70793C19.8801 9.16673 20.5066 8.49161 21 7.72208Z" fill="white"/>
</svg>