<svg xmlns="http://www.w3.org/2000/svg" width="24" height="26" viewBox="0 0 24 26" fill="none">
  <path fill-rule="evenodd" clip-rule="evenodd" d="M20.1045 7.91866C20.6439 8.48692 20.82 9.77738 20.82 9.77738C20.82 9.77738 21 11.2932 21 12.8083V14.2293C21 15.7451 20.82 17.2603 20.82 17.2603C20.82 17.2603 20.6439 18.5507 20.1045 19.119C19.4878 19.7913 18.8039 19.8607 18.4174 19.9C18.3749 19.9043 18.336 19.9082 18.3011 19.9126C15.7822 20.1022 12 20.1081 12 20.1081C12 20.1081 7.32 20.0636 5.88 19.9196C5.81177 19.9064 5.72907 19.896 5.63541 19.8843C5.17928 19.8274 4.46335 19.7381 3.89494 19.119C3.3555 18.5507 3.18 17.2603 3.18 17.2603C3.18 17.2603 3 15.7451 3 14.2293V12.8083C3 11.2932 3.18 9.77738 3.18 9.77738C3.18 9.77738 3.3555 8.48692 3.89494 7.91866C4.51305 7.24546 5.19754 7.17675 5.58411 7.13795C5.62602 7.13374 5.66443 7.12989 5.69887 7.12565C8.21775 6.93604 11.9961 6.93604 11.9961 6.93604H12.0039C12.0039 6.93604 15.7822 6.93604 18.3011 7.12565C18.3356 7.1299 18.374 7.13376 18.4159 7.13797C18.8022 7.17678 19.487 7.24557 20.1045 7.91866ZM10.1409 10.6892L10.1415 15.9511L15.0043 13.3292L10.1409 10.6892Z" fill="white"/>
</svg>