<svg xmlns="http://www.w3.org/2000/svg" width="25" height="25" viewBox="0 0 25 25" fill="none">
  <path d="M21.37 19.2822V9.36914H3.63086V19.2822C3.63086 20.4348 4.53852 21.3691 5.65819 21.3691H19.3427C20.4623 21.3691 21.37 20.4348 21.37 19.2822Z" fill="#A56644"/>
  <path d="M2.58691 5.71782C2.58691 4.56522 3.52128 3.63086 4.67387 3.63086H9.36952V9.36999H2.58691V5.71782Z" fill="#EA2B2B"/>
  <path d="M2.58691 9.36914H9.36952V9.63001C9.36952 11.503 7.85121 13.0213 5.97822 13.0213C4.10525 13.0213 2.58691 11.503 2.58691 9.63001V9.36914Z" fill="#FF4945"/>
  <path d="M9.36914 9.36914H15.63V9.63001C15.63 11.503 14.2285 13.0213 12.4996 13.0213C10.7707 13.0213 9.36914 11.503 9.36914 9.63001V9.36914Z" fill="#EAECEE"/>
  <path d="M15.6309 9.36914H22.4135V9.63001C22.4135 11.503 20.8952 13.0213 19.0222 13.0213C17.1492 13.0213 15.6309 11.503 15.6309 9.63001V9.36914Z" fill="#FF4945"/>
  <path d="M9.36914 3.63086H15.63V9.36999H9.36914V3.63086Z" fill="#D0D0D0"/>
  <path d="M15.6309 3.63086H20.3265C21.4791 3.63086 22.4135 4.56522 22.4135 5.71782V9.36999H15.6309V3.63086Z" fill="#EA2B2B"/>
  <path d="M6.23926 16.1519C6.23926 15.5756 6.70642 15.1084 7.28274 15.1084H9.89143C10.4677 15.1084 10.9349 15.5756 10.9349 16.1519V21.3693H6.23926V16.1519Z" fill="#B9E8FF"/>
  <path d="M13.0215 16.1519C13.0215 15.5756 13.4886 15.1084 14.065 15.1084H18.2389C18.8152 15.1084 19.2824 15.5756 19.2824 16.1519V18.2388C19.2824 18.8151 18.8152 19.2823 18.2389 19.2823H14.065C13.4886 19.2823 13.0215 18.8151 13.0215 18.2388V16.1519Z" fill="#B9E8FF"/>
</svg>