<svg xmlns="http://www.w3.org/2000/svg" width="24" height="25" viewBox="0 0 24 25" fill="none">
  <path d="M14.8334 16.0436C14.781 16.0357 14.7276 16.0421 14.6779 16.0623C14.6281 16.0826 14.5836 16.1161 14.5481 16.1599C14.5119 16.203 14.4854 16.255 14.4707 16.3117C14.456 16.3684 14.4535 16.4282 14.4635 16.4862C14.6488 17.5737 15.2725 19.0663 17.1875 19.9956C17.4144 20.1051 17.7649 20.1906 18.2094 20.2978C19.8732 20.6998 22.6557 21.3734 23.3392 24.222C23.3507 24.2696 23.3704 24.3142 23.3973 24.3533C23.4242 24.3924 23.4577 24.4252 23.496 24.4499C23.5342 24.4745 23.5765 24.4904 23.6202 24.4968C23.664 24.5032 23.7085 24.4999 23.7511 24.4871C23.7937 24.4743 23.8337 24.4523 23.8687 24.4222C23.9037 24.3922 23.9331 24.3547 23.9551 24.312C23.9771 24.2692 23.9914 24.2221 23.9972 24.1732C24.0029 24.1243 23.9999 24.0746 23.9885 24.027C23.1982 20.7366 20.0458 19.9738 18.3518 19.5643C17.9596 19.469 17.6206 19.3873 17.4547 19.3063C16.3039 18.7483 15.5606 17.9202 15.2383 16.8417C18.4357 17.1072 19.8833 15.6844 19.9471 15.6199C19.9864 15.5801 20.0167 15.5305 20.0356 15.4751C20.0544 15.4197 20.0612 15.3601 20.0555 15.3011C20.0497 15.2422 20.0315 15.1857 20.0024 15.1361C19.9733 15.0866 19.9341 15.0455 19.888 15.0161C18.0429 13.8386 18.0429 9.76964 18.0429 8.23732C18.0429 3.95239 15.4592 0.555502 12.147 0.50225C12.1155 0.501077 12.0839 0.500327 12.0523 0.5C8.69178 0.521001 5.95702 3.92164 5.95702 8.08132C5.95702 9.61363 5.95702 13.6833 4.11191 14.8601C4.06435 14.891 4.02425 14.9343 3.99511 14.9864C3.96596 15.0385 3.94865 15.0978 3.94468 15.1591C3.94071 15.2204 3.9502 15.2818 3.97233 15.3381C3.99445 15.3943 4.02853 15.4437 4.07162 15.4819C4.16428 15.5621 6.21217 17.3127 8.73207 16.7809C8.39501 17.8145 7.6618 18.6095 6.54453 19.1518C6.38271 19.2305 6.06042 19.3168 5.6871 19.4158C3.98165 19.8688 0.806425 20.7126 0.0114428 24.0262C2.41952e-05 24.0738 -0.00288551 24.1235 0.00287977 24.1724C0.00864506 24.2213 0.0229724 24.2684 0.0450439 24.3111C0.0896192 24.3973 0.163032 24.4602 0.249132 24.486C0.335231 24.5118 0.426966 24.4983 0.504154 24.4485C0.581342 24.3987 0.637662 24.3167 0.660723 24.2205C1.35163 21.3374 4.16361 20.5911 5.84288 20.1441C6.26387 20.0323 6.59623 19.9438 6.81243 19.8396C8.72737 18.9103 9.35046 17.4177 9.53645 16.3302C9.54749 16.2664 9.54345 16.2006 9.52472 16.1392C9.506 16.0778 9.47324 16.0228 9.42969 15.9799C9.38649 15.9366 9.33391 15.9066 9.27715 15.8929C9.22039 15.8792 9.16142 15.8823 9.10606 15.9019C7.28848 16.5409 5.60922 15.6619 4.87533 15.1744C6.62846 13.5348 6.62846 9.76138 6.62846 8.08132C6.62846 4.33341 9.06309 1.26878 12.0805 1.24853L12.1517 1.25303C15.1275 1.30028 17.3715 4.30266 17.3715 8.23732C17.3715 9.91814 17.3715 13.6998 19.132 15.3394C18.5257 15.7264 17.1432 16.3527 14.8334 16.0436Z" fill="#D5DADD"/>
</svg>