<svg xmlns="http://www.w3.org/2000/svg" width="18" height="17" viewBox="0 0 18 17" fill="none">
  <path d="M12.9944 1.10083L15.9502 4.18208V15.8993H4.9082V15.9376H15.988V4.22086L12.9944 1.10083Z" fill="#2F4454"/>
  <path d="M12.9583 1.0625H4.87109V15.8993H15.9508V4.18253L12.9578 1.0625" fill="#F4F4F4"/>
  <path d="M4.78922 1.85938H1.39453V5.48622H12.0727V1.85938H4.78922Z" fill="#7A7B7C"/>
  <path d="M12.1288 5.42467H1.46289V1.79517H12.1288V5.42467Z" fill="#2F4454"/>
  <path d="M5.00098 2.40868H4.30664V4.95868H4.85277V4.09859L4.97336 4.10549C5.09054 4.10348 5.20662 4.08248 5.31708 4.04334C5.41393 4.01002 5.50302 3.95744 5.57898 3.88874C5.65628 3.8233 5.71722 3.74071 5.75695 3.64755C5.81024 3.49269 5.82927 3.32811 5.81273 3.16518C5.80942 3.04879 5.78901 2.93351 5.75217 2.82305C5.71864 2.74332 5.66887 2.67144 5.60603 2.61198C5.5432 2.55253 5.46867 2.50682 5.3872 2.47774C5.31676 2.45224 5.24399 2.43373 5.16992 2.42249C5.11384 2.41384 5.0572 2.40922 5.00045 2.40868H5.00098ZM4.90005 3.62737H4.85277V2.84112H4.9553C5.00055 2.83785 5.04596 2.8448 5.08816 2.86144C5.13037 2.87809 5.1683 2.904 5.19914 2.93727C5.26306 3.02281 5.29721 3.12693 5.29636 3.23371C5.29636 3.3644 5.29636 3.48287 5.17842 3.56627C5.09346 3.613 4.99675 3.63404 4.90005 3.62684V3.62737ZM6.85027 2.40177C6.7913 2.40177 6.73392 2.40602 6.69355 2.40762L6.56711 2.4108H6.15273V4.9608H6.64042C6.8268 4.96591 7.01236 4.93432 7.18655 4.86784C7.32675 4.81223 7.4509 4.72258 7.5478 4.60699C7.64202 4.49036 7.70965 4.35456 7.74595 4.20909C7.78769 4.04433 7.80804 3.87488 7.80652 3.70493C7.81682 3.5042 7.80129 3.30298 7.7603 3.10621C7.7214 2.96137 7.64856 2.82788 7.5478 2.7168C7.46874 2.62711 7.37197 2.55476 7.26358 2.5043C7.17049 2.46123 7.07257 2.42948 6.97192 2.40974C6.9319 2.40313 6.89136 2.40011 6.8508 2.40071L6.85027 2.40177ZM6.75411 4.49224H6.70098V2.86449H6.70789C6.81741 2.85189 6.92823 2.87165 7.02664 2.92134C7.09871 2.97888 7.15744 3.05138 7.19877 3.13384C7.24337 3.22061 7.26908 3.31584 7.2742 3.41327C7.27899 3.53015 7.2742 3.62577 7.2742 3.70493C7.27637 3.79611 7.2705 3.88731 7.25667 3.97746C7.2403 4.07002 7.21003 4.15957 7.16689 4.24309C7.11806 4.32073 7.05209 4.38615 6.97405 4.43434C6.9085 4.47673 6.83089 4.49651 6.75305 4.49065L6.75411 4.49224ZM9.4518 2.4108H8.16086V4.9608H8.70698V3.9493H9.39761V3.47543H8.70698V2.88468H9.45073V2.4108" fill="#464648"/>
  <path d="M11.7633 10.7604C11.7633 10.7604 13.4569 10.4534 13.4569 11.0319C13.4569 11.6104 12.4077 11.3751 11.7633 10.7604ZM10.5111 10.8045C10.242 10.864 9.97978 10.951 9.72857 11.0643L9.94107 10.5862C10.1536 10.1081 10.374 9.45621 10.374 9.45621C10.6276 9.88298 10.9226 10.2837 11.2548 10.6526C11.0043 10.6899 10.756 10.741 10.5111 10.8056V10.8045ZM9.84066 7.3514C9.84066 6.84724 10.0038 6.70965 10.1307 6.70965C10.2577 6.70965 10.4006 6.77074 10.4054 7.20849C10.364 7.64866 10.2718 8.08257 10.1307 8.50155C9.93741 8.14978 9.83737 7.75437 9.84013 7.35299L9.84066 7.3514ZM7.37088 12.938C6.85132 12.6272 8.46047 11.6705 8.75213 11.6396C8.75053 11.6402 7.91488 13.2631 7.37088 12.938ZM13.9515 11.1004C13.9462 11.0473 13.8983 10.4592 12.8518 10.4842C12.4156 10.4771 11.9795 10.5079 11.5486 10.5761C11.1312 10.1555 10.7717 9.68121 10.4798 9.16562C10.6637 8.63406 10.775 8.0801 10.8107 7.51874C10.7953 6.88124 10.6428 6.51574 10.1541 6.52105C9.66535 6.52637 9.59416 6.95402 9.65844 7.59046C9.72141 8.01814 9.84018 8.43572 10.0117 8.83252C10.0117 8.83252 9.78594 9.53537 9.48738 10.2345C9.18882 10.9336 8.98482 11.3002 8.98482 11.3002C8.46564 11.4692 7.97689 11.7203 7.53716 12.0439C7.09941 12.4514 6.92144 12.7643 7.152 13.0772C7.35069 13.3471 8.0461 13.4082 8.66766 12.5938C8.99792 12.1731 9.29963 11.7309 9.57078 11.2699C9.57078 11.2699 10.5185 11.0101 10.8134 10.9389C11.1082 10.8677 11.4647 10.8114 11.4647 10.8114C11.4647 10.8114 12.3301 11.6821 13.1647 11.6513C13.9993 11.6205 13.9589 11.1525 13.9536 11.1015" fill="#2F4454"/>
  <path d="M12.918 1.10352V4.22355H15.9105L12.918 1.10352Z" fill="#2F4454"/>
  <path d="M12.957 1.0625V4.18253H15.9496L12.957 1.0625Z" fill="#F4F4F4"/>
  <path d="M4.95997 2.36766H4.26562V4.91766H4.81387V4.0581L4.935 4.06501C5.05218 4.06299 5.16826 4.042 5.27872 4.00285C5.37556 3.96953 5.46465 3.91694 5.54062 3.84826C5.61734 3.78264 5.67773 3.70007 5.717 3.60707C5.77028 3.45221 5.78931 3.28763 5.77278 3.12469C5.76946 3.0083 5.74906 2.89303 5.71222 2.78257C5.67868 2.70283 5.62891 2.63095 5.56608 2.5715C5.50324 2.51205 5.42872 2.46633 5.34725 2.43726C5.27649 2.41151 5.20335 2.39282 5.12891 2.38148C5.07282 2.37282 5.01618 2.36821 4.95944 2.36766H4.95997ZM4.85903 3.58635H4.81175V2.8001H4.91481C4.96006 2.79684 5.00547 2.80378 5.04768 2.82043C5.08988 2.83707 5.12781 2.86299 5.15866 2.89626C5.22258 2.9818 5.25672 3.08592 5.25587 3.19269C5.25587 3.32338 5.25588 3.44185 5.13794 3.52526C5.05297 3.57199 4.95626 3.59303 4.85956 3.58582L4.85903 3.58635ZM6.80925 2.36076C6.75028 2.36076 6.69291 2.36501 6.65253 2.3666L6.52769 2.36979H6.11331V4.91979H6.601C6.78738 4.9249 6.97294 4.89331 7.14713 4.82682C7.28733 4.77121 7.41148 4.68157 7.50838 4.56598C7.6026 4.44934 7.67023 4.31355 7.70653 4.16807C7.74827 4.00331 7.76862 3.83387 7.76709 3.66391C7.7774 3.46318 7.76187 3.26196 7.72088 3.06519C7.68198 2.92036 7.60913 2.78687 7.50838 2.67579C7.42932 2.58609 7.33255 2.51374 7.22416 2.46329C7.13107 2.42021 7.03315 2.38846 6.9325 2.36873C6.89247 2.36211 6.85194 2.35909 6.81138 2.35969L6.80925 2.36076ZM6.71469 4.45123H6.66156V2.82348H6.66847C6.77799 2.81087 6.8888 2.83064 6.98722 2.88032C7.05929 2.93787 7.11802 3.01037 7.15934 3.09282C7.20395 3.17959 7.22966 3.27483 7.23478 3.37226C7.23956 3.48913 7.23478 3.58476 7.23478 3.66391C7.23694 3.7551 7.23108 3.84629 7.21725 3.93644C7.20088 4.029 7.17061 4.11856 7.12747 4.20207C7.07864 4.27971 7.01267 4.34514 6.93463 4.39332C6.86908 4.43571 6.79146 4.45549 6.71363 4.44963L6.71469 4.45123ZM9.41078 2.36979H8.11984V4.91979H8.66597V3.90829H9.35659V3.43441H8.66597V2.84366H9.40972V2.36979" fill="white"/>
</svg>