<svg xmlns="http://www.w3.org/2000/svg" width="44" height="44" viewBox="0 0 44 44" fill="none">
  <g clip-path="url(#clip0_270_2165)">
    <rect width="32" height="32" transform="translate(0.318359 14.731) rotate(-26.7913)" fill="url(#paint0_linear_270_2165)"/>
    <path d="M35.2589 21.4934L30.5512 18.2256L28.1863 13.5422C25.8252 8.86619 20.1001 6.98289 15.4241 9.34401C10.7481 11.7051 8.86479 17.4303 11.2259 22.1063L13.5908 26.7896L13.4255 32.518C13.418 32.7777 13.4781 33.035 13.5999 33.2645C13.7218 33.494 13.9011 33.688 14.1205 33.8274C14.3398 33.9667 14.5916 34.0467 14.8511 34.0595C15.1107 34.0723 15.3691 34.0174 15.601 33.9003L20.4512 31.4512C20.5126 31.6064 20.581 31.7588 20.6561 31.9078C21.3136 33.21 22.4614 34.1975 23.8471 34.6534C25.2327 35.1092 26.7427 34.9959 28.0448 34.3384C29.3469 33.6809 30.3345 32.5331 30.7903 31.1474C31.2461 29.7618 31.1328 28.2518 30.4753 26.9497C30.3992 26.7991 30.317 26.6541 30.2295 26.5137L35.0796 24.0646C35.3116 23.9475 35.5091 23.7721 35.6529 23.5557C35.7966 23.3392 35.8817 23.0891 35.8997 22.8299C35.9178 22.5707 35.8682 22.3113 35.7558 22.077C35.6435 21.8427 35.4723 21.6416 35.2589 21.4934ZM28.6901 27.8511C28.9072 28.2803 29.0336 28.7497 29.0613 29.2298C29.0889 29.71 29.0173 30.1908 28.851 30.6421C28.6846 31.0933 28.427 31.5055 28.0942 31.8528C27.7614 32.2001 27.3606 32.475 26.9168 32.6605C26.4731 32.846 25.9958 32.9381 25.5149 32.9309C25.034 32.9237 24.5597 32.8175 24.1216 32.6189C23.6836 32.4202 23.2912 32.1334 22.9689 31.7764C22.6466 31.4193 22.4014 30.9997 22.2485 30.5436L28.4322 27.4212C28.5283 27.5582 28.6145 27.7019 28.6901 27.8511ZM15.4489 31.7366L15.6045 26.3406L13.0112 21.2048C12.1146 19.4292 11.9601 17.3702 12.5817 15.4806C13.2033 13.5911 14.55 12.0259 16.3256 11.1293C18.1012 10.2327 20.1602 10.0782 22.0497 10.6998C23.9392 11.3214 25.5045 12.6681 26.401 14.4437L28.9943 19.5795L33.4288 22.6577L15.4489 31.7366Z" fill="white"/>
  </g>
  <defs>
    <linearGradient id="paint0_linear_270_2165" x1="-0.618161" y1="-3.55969" x2="40.5157" y2="-0.989743" gradientUnits="userSpaceOnUse">
      <stop stop-color="#376E6F" stop-opacity="0.35"/>
      <stop offset="1" stop-color="#376E6F"/>
    </linearGradient>
    <clipPath id="clip0_270_2165">
      <rect width="32" height="32" fill="white" transform="translate(0.318359 14.731) rotate(-26.7913)"/>
    </clipPath>
  </defs>
</svg>