<svg width="36" height="44" viewBox="0 0 36 44" fill="none" xmlns="http://www.w3.org/2000/svg">
<g id="User 01c">
<path id="Combined Shape" d="M30.0836 20.5836C31.4356 16.0934 32.2689 8.41691 26.5836 3.16691C22.2386 -0.845422 10.5002 -1.24976 6.41689 7.50025C5.73522 8.96091 6.66689 11.2502 8.50022 11.1669C9.22072 11.1336 9.66689 13.4169 10.0836 14.8336C9.50022 20.5836 4.30323 20.6897 1.66689 25.0836C-1.58311 30.5002 2.41689 38.5002 12.0002 38.5002C21.5836 38.5002 27.0772 30.5677 30.0836 20.5836Z" fill="url(#paint0_linear_734_864)"/>
<g id="Group 16">
<path id="Rectangle" d="M33.334 33.7378C34.5562 36.0918 35.1673 44.667 35.1673 44.667H0.833984C0.833984 44.667 1.44515 36.0918 2.66732 33.7378C4.50065 30.2068 18.0007 25.667 18.0007 25.667C18.0007 25.667 31.5007 30.2068 33.334 33.7378Z" fill="url(#paint1_linear_734_864)"/>
<path id="Mask" d="M22.0009 27.6668C22.0009 27.6668 19.8732 28.8335 17.9159 28.8335C15.9585 28.8335 14.0009 27.6668 14.0009 27.6668V24.0002C13.5798 24.0667 13.1532 24.0921 12.7272 24.0758C8.72919 24.0755 7.22169 18.252 8.00086 11.1668C8.50086 11.1668 9.66753 11.1668 11.3342 8.8335C10.9175 12.0835 15.7509 11.5835 17.5842 9.00016C16.6675 12.0835 19.0842 14.1668 21.1675 12.9168C25.2527 10.4657 26.171 17.9378 22.0009 18.0002V27.6668Z" fill="url(#paint2_linear_734_864)"/>
<g id="Group 16_2">
<g id="Path 2" style="mix-blend-mode:multiply" opacity="0.782">
<path d="M14.001 24C16.0684 23.6194 18.0467 22.8563 19.8343 21.75C19.8343 21.75 17.751 25.3333 14.001 25.3333V24Z" fill="#FFD7B8"/>
</g>
</g>
</g>
<g id="Group 9">
<path id="Combined Shape_2" d="M18.0058 28.6628C19.2103 28.6083 22.0003 28.0183 22.0003 26.7437V25.667C22.306 25.667 23.1811 26.389 23.6313 27.0003C25.4106 29.417 23.437 31.5837 21.8273 31.5837C19.7963 31.5837 18.4503 29.8867 18.0003 29.0703C17.5503 29.887 16.2043 31.5837 14.1733 31.5837C12.5636 31.5837 10.59 29.417 12.3693 27.0003C12.8195 26.389 13.6946 25.667 14.0003 25.667V26.7437C14.0003 28.0183 16.8656 28.6083 18.0058 28.6628Z" fill="white"/>
</g>
<path id="Combined Shape_3" d="M17.334 40.0003C17.334 39.8685 17.3731 39.7396 17.4463 39.6299C17.5196 39.5203 17.6237 39.4349 17.7455 39.3844C17.8673 39.3339 18.0014 39.3207 18.1307 39.3465C18.26 39.3722 18.3788 39.4357 18.4721 39.5289C18.5653 39.6222 18.6288 39.7409 18.6545 39.8703C18.6802 39.9996 18.667 40.1336 18.6166 40.2554C18.5661 40.3773 18.4807 40.4814 18.371 40.5546C18.2614 40.6279 18.1325 40.667 18.0007 40.667C17.8238 40.667 17.6543 40.5968 17.5292 40.4717C17.4042 40.3467 17.334 40.1771 17.334 40.0003ZM17.334 36.667C17.334 36.5351 17.3731 36.4062 17.4463 36.2966C17.5196 36.187 17.6237 36.1015 17.7455 36.0511C17.8673 36.0006 18.0014 35.9874 18.1307 36.0131C18.26 36.0389 18.3788 36.1024 18.4721 36.1956C18.5653 36.2888 18.6288 36.4076 18.6545 36.5369C18.6802 36.6663 18.667 36.8003 18.6166 36.9221C18.5661 37.0439 18.4807 37.1481 18.371 37.2213C18.2614 37.2946 18.1325 37.3337 18.0007 37.3337C17.8238 37.3337 17.6543 37.2634 17.5292 37.1384C17.4042 37.0134 17.334 36.8438 17.334 36.667ZM17.334 33.3337C17.334 33.2018 17.3731 33.0729 17.4463 32.9633C17.5196 32.8536 17.6237 32.7682 17.7455 32.7177C17.8673 32.6673 18.0014 32.6541 18.1307 32.6798C18.26 32.7055 18.3788 32.769 18.4721 32.8623C18.5653 32.9555 18.6288 33.0743 18.6545 33.2036C18.6802 33.3329 18.667 33.467 18.6166 33.5888C18.5661 33.7106 18.4807 33.8147 18.371 33.888C18.2614 33.9612 18.1325 34.0003 18.0007 34.0003C17.8238 34.0003 17.6543 33.9301 17.5292 33.8051C17.4042 33.68 17.334 33.5105 17.334 33.3337Z" fill="url(#paint3_linear_734_864)"/>
</g>
<defs>
<linearGradient id="paint0_linear_734_864" x1="15.8139" y1="0.431641" x2="15.8139" y2="38.5002" gradientUnits="userSpaceOnUse">
<stop stop-color="#130027"/>
<stop offset="1" stop-color="#130017"/>
</linearGradient>
<linearGradient id="paint1_linear_734_864" x1="18.0007" y1="44.667" x2="18.0007" y2="25.667" gradientUnits="userSpaceOnUse">
<stop stop-color="#E6864E"/>
<stop offset="1" stop-color="#E67240"/>
</linearGradient>
<linearGradient id="paint2_linear_734_864" x1="16.2586" y1="8.8335" x2="16.2586" y2="28.8335" gradientUnits="userSpaceOnUse">
<stop stop-color="#FFE0CC"/>
<stop offset="1" stop-color="#FFEADB"/>
</linearGradient>
<linearGradient id="paint3_linear_734_864" x1="18.0007" y1="32.667" x2="18.0007" y2="40.667" gradientUnits="userSpaceOnUse">
<stop stop-color="#130027"/>
<stop offset="1" stop-color="#130017"/>
</linearGradient>
</defs>
</svg>
