<svg xmlns="http://www.w3.org/2000/svg" width="65" height="65" viewBox="0 0 65 65" fill="none">
  <g clip-path="url(#clip0_270_2400)">
    <path d="M33.4692 30.5629L33.2482 31.0114L33.6967 31.2324C34.3461 31.5523 34.8803 32.0657 35.2259 32.7019C35.5714 33.338 35.7112 34.0657 35.626 34.7846C35.6183 34.8497 35.5978 34.9126 35.5657 34.9699C35.5336 35.0271 35.4905 35.0775 35.4389 35.1182C35.3873 35.1588 35.3282 35.1889 35.265 35.2066C35.2018 35.2244 35.1357 35.2296 35.0705 35.2219C35.0053 35.2141 34.9422 35.1936 34.8849 35.1615C34.8277 35.1293 34.7773 35.0863 34.7366 35.0347C34.6546 34.9305 34.6173 34.7979 34.6329 34.6662L34.633 34.666C34.6937 34.1525 34.5938 33.6329 34.347 33.1786C34.1001 32.7243 33.7185 32.3577 33.2547 32.1293L32.8062 31.9085L32.5853 32.3569L30.8174 35.945L30.5964 36.3936L31.0449 36.6145C31.8776 37.0248 32.5132 37.749 32.8119 38.6279C33.1105 39.5068 33.0479 40.4684 32.6376 41.301C32.2273 42.1337 31.5031 42.7693 30.6242 43.068C29.7453 43.3667 28.7838 43.304 27.9511 42.8937L27.5026 42.6727L27.2816 43.1213L27.0606 43.5698L26.1636 43.1278L26.3846 42.6793L26.6055 42.2308L26.157 42.0098C25.5077 41.6898 24.9734 41.1764 24.6279 40.5403C24.2824 39.9041 24.1426 39.1765 24.2277 38.4576L24.2279 38.4576L24.2292 38.4436C24.2352 38.3771 24.2545 38.3123 24.2859 38.2533C24.3173 38.1943 24.3603 38.1423 24.4122 38.1001C24.4642 38.058 24.524 38.0268 24.5882 38.0082C24.6524 37.9896 24.7197 37.9841 24.7861 37.992C24.8525 37.9999 24.9166 38.021 24.9747 38.0541C25.0328 38.0872 25.0837 38.1316 25.1243 38.1847C25.1649 38.2378 25.1945 38.2985 25.2112 38.3632C25.228 38.4279 25.2316 38.4954 25.2218 38.5615L25.2207 38.5688L25.2199 38.5762C25.0997 39.5998 25.6228 40.6318 26.599 41.1128L27.0475 41.3337L27.2685 40.8852L29.0364 37.2971L29.2574 36.8486L28.8089 36.6276C27.9762 36.2174 27.3406 35.4931 27.0419 34.6142C26.7432 33.7353 26.8059 32.7738 27.2162 31.9411C27.6265 31.1084 28.3507 30.4728 29.2296 30.1742C30.1085 29.8755 31.07 29.9382 31.9027 30.3484L32.3512 30.5694L32.5722 30.1209L32.7932 29.6724L33.6902 30.1144L33.4692 30.5629ZM31.6882 31.915L31.9092 31.4664L31.4607 31.2454C30.866 30.9524 30.1791 30.9076 29.5514 31.121C28.9236 31.3343 28.4063 31.7883 28.1132 32.3831C27.8202 32.9779 27.7754 33.6647 27.9887 34.2925C28.2021 34.9202 28.6561 35.4375 29.2508 35.7306L29.6994 35.9516L29.9204 35.5031L31.6882 31.915ZM28.1655 41.3272L27.9446 41.7757L28.3931 41.9967C28.9878 42.2898 29.6746 42.3345 30.3024 42.1212C30.9302 41.9078 31.4475 41.4538 31.7406 40.8591C32.0336 40.2643 32.0784 39.5775 31.865 38.9497C31.6517 38.3219 31.1977 37.8046 30.6029 37.5116L30.1544 37.2906L29.9334 37.7391L28.1655 41.3272Z" fill="#2F4454" stroke="#2F4454"/>
    <path d="M28.6067 21.5248L28.8364 21.7741C32.2493 25.4793 37.3251 27.9801 42.3433 28.4269L42.677 28.4567L42.7765 28.7766C43.6578 31.6131 44.1094 34.5656 44.1163 37.5358L44.1163 37.538C44.11 40.6599 43.544 43.551 42.3309 45.7286L42.3308 45.7286C41.1476 47.8522 39.3489 49.3165 36.6886 49.7389L36.6886 49.7389C33.9495 50.1734 30.1103 49.5285 24.8792 46.9511C19.6437 44.3715 16.7709 41.7311 15.4207 39.3033L15.4206 39.3031C14.1125 36.9477 14.1546 34.6492 15.0922 32.4366L28.6067 21.5248ZM28.6067 21.5248L28.2901 21.6458M28.6067 21.5248L28.2901 21.6458M28.2901 21.6458C25.6009 22.6736 22.822 24.1911 20.457 26.0311L20.457 26.0312M28.2901 21.6458L20.457 26.0312M20.457 26.0312C17.9824 27.9572 16.0548 30.1627 15.0923 32.4364L20.457 26.0312ZM29.2013 14.0465L29.202 14.0465C31.8854 14.0537 36.0428 14.5519 39.9058 16.4552C43.6876 18.3186 46.5471 21.2128 48.1827 23.3156L48.2746 23.4338C48.2749 23.4342 48.2753 23.4347 48.2757 23.4352C48.6099 23.8715 48.8875 24.2679 49.1058 24.6067L43.8576 27.5633L43.5001 27.7647L43.6279 28.1546C44.5598 30.9994 45.1251 34.3237 45.1178 37.5412C45.1105 40.7638 44.5291 43.8395 43.2051 46.216C41.8913 48.5742 39.8454 50.2514 36.8468 50.7269C33.8215 51.2066 29.7643 50.4728 24.4381 47.8485C19.1107 45.2237 16.0363 42.4663 14.5483 39.7893C13.0737 37.1364 13.1283 34.5118 14.1727 32.0465C15.2256 29.5611 17.2913 27.2292 19.8441 25.2428C22.3926 23.2599 25.3954 21.6458 28.2756 20.5846L28.6538 20.4453L28.5979 20.0461L27.7647 14.0958C27.9729 14.0796 28.2021 14.0667 28.4505 14.0588L28.4505 14.0588L28.4525 14.0587C28.6874 14.0504 28.9374 14.0454 29.2013 14.0465ZM41.9473 27.3818L42.1089 27.4006L37.5648 21.8356L37.6526 21.3434C37.6525 21.3433 37.6524 21.3433 37.6523 21.3433C35.4517 20.9506 33.3251 19.8041 31.4713 18.4234C31.0053 18.0756 30.5518 17.7115 30.1116 17.3317L29.106 16.4642L29.2898 17.7795L29.7626 21.164L29.7852 21.3259L29.8992 21.4432C33.0232 24.6587 37.4943 26.8616 41.9473 27.3818ZM30.4326 15.0827L29.0447 15.0044L30.0647 15.9488C30.6887 16.5266 31.3607 17.0933 32.0676 17.6206L32.068 17.6209C33.8553 18.9514 35.8358 20.0038 37.8272 20.3576L37.8279 20.3577C40.0071 20.7415 42.1604 21.2599 44.2755 21.9098L44.7633 21.0661C43.3306 19.7308 41.5436 18.377 39.463 17.3518C36.2943 15.7906 32.9163 15.223 30.4326 15.0827Z" fill="#2F4454" stroke="#2F4454"/>
  </g>
  <defs>
    <clipPath id="clip0_270_2400">
      <rect width="48" height="48" fill="white" transform="translate(21.2148) rotate(26.2299)"/>
    </clipPath>
  </defs>
</svg>