<svg xmlns="http://www.w3.org/2000/svg" width="16" height="16" viewBox="0 0 16 16" fill="none">
  <g clip-path="url(#clip0_227_2667)">
    <path d="M10.1046 8.01897L15.0366 12.9324C15.1965 13.0691 15.3233 13.2403 15.4075 13.4331C15.4415 13.6231 15.4415 13.8178 15.4075 14.0078C15.4052 14.1985 15.3674 14.3872 15.2962 14.5641C15.2306 14.7572 15.1155 14.9298 14.9625 15.0647C14.9023 15.1465 14.8267 15.2158 14.74 15.2687L14.4619 15.417H14.1837C14.0004 15.456 13.8108 15.456 13.6275 15.417H13.3494L13.0712 15.2687C12.9842 15.2162 12.9085 15.1469 12.8488 15.0647L7.9909 10.1141L3.04034 15.0462C2.98019 15.128 2.90461 15.1973 2.81785 15.2501L2.53973 15.3984H2.26161C2.07825 15.4375 1.88872 15.4375 1.70536 15.3984H1.42724L1.14912 15.2501C1.06207 15.1977 0.986412 15.1283 0.926624 15.0462C0.769416 14.9187 0.648021 14.7526 0.574338 14.5641C0.540551 14.3802 0.540551 14.1917 0.574338 14.0078C0.540325 13.8178 0.540325 13.6231 0.574338 13.4331C0.64772 13.2438 0.761635 13.073 0.908083 12.9324L5.87718 8.01897L0.945166 3.06841C0.778515 2.93818 0.650347 2.76516 0.574338 2.56779C0.540551 2.38392 0.540551 2.19542 0.574338 2.01155C0.544602 1.83355 0.544602 1.65185 0.574338 1.47385C0.64772 1.28462 0.761635 1.11375 0.908083 0.97323C1.0478 0.825832 1.2189 0.711765 1.4087 0.639485C1.77239 0.497758 2.17604 0.497758 2.53973 0.639485C2.72953 0.711765 2.90062 0.825832 3.04034 0.97323L7.9909 5.90524L12.9415 0.954689C13.0812 0.80729 13.2523 0.693224 13.4421 0.620943C13.8058 0.479217 14.2094 0.479217 14.5731 0.620943C14.7629 0.693224 14.934 0.80729 15.0737 0.954689C15.2225 1.10056 15.3365 1.27798 15.4075 1.47385C15.4372 1.65185 15.4372 1.83355 15.4075 2.01155C15.4052 2.20225 15.3674 2.39087 15.2962 2.56779C15.2306 2.76094 15.1155 2.93354 14.9625 3.06841L10.1046 8.01897Z" fill="#696969"/>
  </g>
  <defs>
    <clipPath id="clip0_227_2667">
      <rect width="15" height="15" fill="white" transform="translate(0.5 0.5)"/>
    </clipPath>
  </defs>
</svg>