<svg xmlns="http://www.w3.org/2000/svg" width="23" height="25" viewBox="0 0 23 25" fill="none">
  <path d="M20.5464 11.9506L11.7393 21.0889C10.6604 22.2084 9.19701 22.8373 7.67117 22.8373C6.14532 22.8373 4.68198 22.2084 3.60304 21.0889C2.52411 19.9694 1.91797 18.451 1.91797 16.8678C1.91797 15.2846 2.52411 13.7662 3.60304 12.6467L12.4101 3.5084C13.1294 2.76206 14.105 2.34277 15.1222 2.34277C16.1394 2.34277 17.115 2.76206 17.8343 3.5084C18.5536 4.25474 18.9577 5.26699 18.9577 6.32247C18.9577 7.37795 18.5536 8.3902 17.8343 9.13654L9.01763 18.2748C8.65798 18.648 8.1702 18.8576 7.66158 18.8576C7.15297 18.8576 6.66519 18.648 6.30554 18.2748C5.9459 17.9016 5.74385 17.3955 5.74385 16.8678C5.74385 16.34 5.9459 15.8339 6.30554 15.4607L14.4418 7.02847" stroke="#D5DADD" stroke-linecap="round" stroke-linejoin="round"/>
</svg>