<svg xmlns="http://www.w3.org/2000/svg" width="879" height="1024" viewBox="0 0 879 1024" fill="none">
  <path fill-rule="evenodd" clip-rule="evenodd" d="M74.0004 -54.6883C212.998 -77.8277 406.109 -113.939 533.977 -54.6883C660.891 4.11926 641.919 192.357 701.669 318.87C759.716 441.778 882.694 539.256 878.656 675.125C874.432 817.287 788.335 948.607 680.212 1040.94C576.278 1129.69 437.511 1160.14 301.1 1168.32C174.135 1175.94 36.0319 1166.75 -61.8196 1085.45C-153.362 1009.38 -128.33 863.523 -188.984 761.098C-257.89 644.735 -422.218 586.902 -436.671 452.434C-451.758 312.071 -378.639 157.94 -262.418 77.8901C-149.841 0.350016 -60.8291 -32.2429 74.0004 -54.6883Z" fill="#2E151B"/>
</svg>