<svg xmlns="http://www.w3.org/2000/svg" width="24" height="26" viewBox="0 0 24 26" fill="none">
  <path d="M21.6834 18.2652C21.6829 19.7047 21.24 21.101 20.4278 22.2227C19.6156 23.3445 18.4828 24.1245 17.2171 24.4336L16.6125 22.4189C17.1662 22.3176 17.6927 22.0812 18.1541 21.7266C18.6156 21.372 19.0005 20.9081 19.2811 20.3684H16.9451C16.4425 20.3684 15.9604 20.1466 15.605 19.7518C15.2495 19.3569 15.0499 18.8215 15.0499 18.2631V14.0526C15.0499 13.4942 15.2495 12.9587 15.605 12.5639C15.9604 12.1691 16.4425 11.9473 16.9451 11.9473H19.7293C19.4981 9.91247 18.6063 8.04129 17.2213 6.68487C15.8363 5.32845 14.0534 4.58003 12.2069 4.58003C10.3605 4.58003 8.5775 5.32845 7.19252 6.68487C5.80755 8.04129 4.91577 9.91247 4.68451 11.9473H7.46869C7.97135 11.9473 8.45343 12.1691 8.80886 12.5639C9.1643 12.9587 9.36398 13.4942 9.36398 14.0526V18.2631C9.36398 18.8215 9.1643 19.3569 8.80886 19.7518C8.45343 20.1466 7.97135 20.3684 7.46869 20.3684H4.62576C4.1231 20.3684 3.64102 20.1466 3.28559 19.7518C2.93015 19.3569 2.73047 18.8215 2.73047 18.2631V12.9999C2.73047 7.18626 6.97307 2.47363 12.2069 2.47363C17.4408 2.47363 21.6834 7.18626 21.6834 12.9999V18.2652Z" fill="#5DBB15"/>
</svg>