<svg xmlns="http://www.w3.org/2000/svg" width="226" height="198" viewBox="0 0 226 198" fill="none">
  <path d="M124.372 11.7351C124.372 11.7351 105.623 53.8166 56.0401 44.1765C6.45759 34.5364 -23.4158 102.359 23.4603 127.088C70.3364 151.817 37.8501 180.226 69.1132 194.737C104.646 211.229 117.896 156.081 144.074 161.203C201.848 172.507 237.586 153.12 221.783 127.03C194.044 81.2327 173.903 82.9187 182.088 53.3438C190.273 23.769 144.05 -21.6335 124.372 11.7351Z" fill="#DA7893" fill-opacity="0.3"/>
  <path d="M115.321 107.78C110.965 116.129 109.865 120.567 96.6501 128.852C96.5475 128.919 96.4706 129.018 96.4319 129.135C94.3206 135.68 90.7466 141.659 85.981 146.617C85.9168 146.683 85.8717 146.766 85.8503 146.855C85.829 146.945 85.8323 147.039 85.8598 147.126C87.3389 152.049 88.9398 160.924 84.4857 168.198C77.9387 178.908 73.0897 172.442 74.0995 170.017C74.9643 167.939 82.3519 163.478 80.6465 152.332C80.6321 152.243 80.5951 152.159 80.5389 152.088C80.4827 152.017 80.4092 151.962 80.3256 151.928C80.242 151.894 80.1509 151.882 80.0613 151.893C79.9717 151.904 79.8865 151.939 79.8139 151.992C74.4591 155.879 68.3131 158.537 61.8138 159.776C61.7416 159.788 61.6728 159.815 61.6119 159.856C61.5509 159.896 61.4993 159.949 61.4603 160.011C61.4213 160.073 61.3959 160.142 61.3858 160.215C61.3757 160.287 61.381 160.361 61.4015 160.431C63.0585 166.364 63.8425 175.635 56.9237 184.162C53.23 188.607 48.3318 182.109 53.23 177.68C56.269 174.94 56.0346 167.059 54.6121 160.989C54.5849 160.871 54.5176 160.767 54.4218 160.693C54.326 160.619 54.2075 160.581 54.0866 160.585C53.8038 160.593 53.5126 160.593 53.23 160.593C43.2325 160.608 33.5128 157.304 25.5952 151.2C25.5228 151.144 25.4369 151.107 25.3459 151.093C25.255 151.08 25.1621 151.091 25.0765 151.124C24.9909 151.158 24.9155 151.213 24.8576 151.284C24.7997 151.356 24.7615 151.441 24.7466 151.532C22.847 164.076 30.3886 168.416 31.4632 171.633C32.6595 175.23 29.9113 178.431 26.5247 177.526C26.4513 177.504 26.3827 177.468 26.3227 177.42C15.2817 169.128 16.2435 151.75 17.4559 143.384C17.467 143.316 17.4634 143.246 17.4452 143.179C17.4271 143.112 17.3949 143.05 17.3508 142.996C11.1765 135.051 7.83378 125.27 7.8536 115.208C7.8536 96.7552 18.8703 80.8726 34.6882 73.7841C34.6893 73.7841 34.6904 73.784 34.6914 73.7836C34.6924 73.7832 34.6933 73.7826 34.694 73.7819C34.6948 73.7811 34.6954 73.7802 34.6958 73.7792C34.6962 73.7783 34.6964 73.7772 34.6964 73.7761C37.1291 70.6961 40.0956 66.34 40.5484 63.2848C40.5633 63.1813 40.6087 63.0846 40.6789 63.007C40.7491 62.9295 40.8407 62.8746 40.9422 62.8494C41.0438 62.8243 41.1505 62.8299 41.2487 62.8657C41.347 62.9015 41.4324 62.9658 41.4939 63.0503C42.6579 64.6183 44.4604 67.609 44.0643 70.7612C44.0481 70.8662 44.0401 70.9712 44.0239 71.0764C43.9915 71.2543 43.9512 71.424 43.9107 71.6018C43.8703 71.7393 43.8379 71.8766 43.7895 72.0141C44.3548 71.5424 44.8941 71.0405 45.4052 70.5106C46.5933 69.2902 48.0967 67.4554 48.7434 65.4913C48.774 65.3866 48.8363 65.2938 48.9218 65.2259C49.0072 65.158 49.1116 65.1182 49.2206 65.1121C49.3296 65.106 49.4378 65.1337 49.5304 65.1916C49.6229 65.2495 49.6952 65.3347 49.7374 65.4354C50.1574 66.47 50.6508 67.9167 50.8204 69.3958C50.8351 69.5285 50.8987 69.6509 50.9989 69.7391C51.099 69.8273 51.2285 69.8749 51.362 69.8727C51.9844 69.8484 52.6067 69.8323 53.2291 69.8323C78.2935 69.8323 98.6135 90.1522 98.6135 115.209C98.6135 115.783 98.6054 116.348 98.581 116.914C98.5775 117 98.595 117.086 98.6321 117.164C98.6693 117.242 98.7249 117.31 98.7941 117.362C98.8634 117.414 98.9442 117.448 99.0296 117.461C99.115 117.475 99.2024 117.467 99.2842 117.439C101.984 116.494 105.387 114.214 107.44 108.791C111.279 98.6875 111.683 95.8586 110.471 87.9779C109.258 80.0971 115.119 80.5019 116.331 83.1283C117.542 85.7547 120.17 98.4849 115.321 107.78Z" fill="#2F4454"/>
  <path d="M35.5038 119.189C35.3492 119.189 35.199 119.137 35.0767 119.043C34.9543 118.948 34.8667 118.816 34.8274 118.667C34.5227 117.335 34.4572 115.961 34.6341 114.607C35.0321 111.663 36.6337 109.5 39.2659 108.35C40.9859 107.599 42.6119 107.556 44.0984 108.222C47.1452 109.588 48.4423 113.46 48.4961 113.624C48.5482 113.799 48.53 113.987 48.4454 114.148C48.3608 114.31 48.2164 114.432 48.0431 114.489C47.8697 114.546 47.6811 114.533 47.5173 114.452C47.3535 114.372 47.2274 114.231 47.1661 114.059C47.155 114.026 46.0013 110.605 43.5216 109.498C42.4114 109.002 41.1683 109.047 39.8267 109.633C37.6487 110.585 36.3705 112.307 36.0278 114.752C35.8712 115.939 35.9236 117.144 36.1826 118.313C36.2292 118.492 36.2026 118.683 36.1087 118.843C36.0147 119.004 35.8611 119.12 35.6814 119.167C35.6234 119.182 35.5637 119.189 35.5038 119.189Z" fill="white"/>
  <path d="M56.605 112.778C56.4584 112.778 56.3154 112.732 56.1964 112.646C56.0774 112.561 55.9883 112.44 55.9417 112.301C55.551 110.998 55.3965 109.635 55.4853 108.278C55.6918 105.328 57.15 103.074 59.7024 101.76C61.3734 100.901 62.9955 100.752 64.5244 101.322C67.6464 102.484 69.1895 106.239 69.2536 106.398C69.3209 106.57 69.3177 106.762 69.2446 106.931C69.1716 107.1 69.0346 107.234 68.8635 107.303C68.6923 107.372 68.5009 107.371 68.3308 107.299C68.1607 107.228 68.0257 107.092 67.9551 106.922C67.9411 106.889 66.5721 103.574 64.0308 102.632C62.8878 102.208 61.6474 102.334 60.3432 103.005C58.2318 104.092 57.0684 105.884 56.8852 108.334C56.8061 109.522 56.9363 110.715 57.27 111.858C57.3048 111.963 57.314 112.075 57.2971 112.184C57.2802 112.294 57.2375 112.398 57.1727 112.488C57.1078 112.578 57.0226 112.651 56.9239 112.701C56.8253 112.752 56.7161 112.778 56.6053 112.778H56.605Z" fill="white"/>
  <path d="M54.8239 127.423C50.0596 127.423 46.4269 124.252 46.245 124.091C46.1763 124.03 46.1202 123.956 46.0801 123.873C46.0399 123.791 46.0164 123.701 46.011 123.609C46.0055 123.517 46.0182 123.425 46.0483 123.338C46.0784 123.252 46.1253 123.172 46.1863 123.103C46.2474 123.034 46.3214 122.978 46.4041 122.938C46.4868 122.898 46.5765 122.874 46.6683 122.869C46.7601 122.863 46.852 122.876 46.9389 122.906C47.0258 122.936 47.1059 122.983 47.1746 123.044C47.2223 123.086 52.0196 127.256 57.4208 125.646C62.7968 124.044 64.2711 117.218 64.2856 117.149C64.3248 116.969 64.4334 116.812 64.5879 116.711C64.7423 116.611 64.9302 116.575 65.1106 116.613C65.2911 116.65 65.4497 116.756 65.5519 116.91C65.6541 117.063 65.6918 117.25 65.6567 117.431C65.3239 118.845 64.8026 120.208 64.1068 121.483C62.5699 124.317 60.3968 126.22 57.8208 126.987C56.8483 127.277 55.8387 127.424 54.8239 127.423Z" fill="white"/>
  <path d="M205.72 96.2659C205.66 97.7858 205.505 99.3005 205.257 100.801C201.882 121.445 182.421 135.438 161.777 132.063C141.141 128.69 127.139 109.227 130.515 88.5827C130.73 87.2667 131.014 85.9787 131.35 84.7226C116.04 74.3248 116.934 54.2744 119.869 52.0515C122.833 49.8006 126.069 51.6973 125.731 57.9238C125.383 66.966 130.95 74.4438 134.038 77.7009C141.267 63.2889 157.244 54.582 173.995 57.3204C190.252 59.9777 202.379 72.6154 205.156 87.9423C208.187 86.8407 213.538 83.6614 217.874 74.6241C218.479 72.823 218.647 71.499 218.679 70.7016C218.701 69.9567 218.991 69.2449 219.498 68.6979C220.446 67.7063 222.125 66.6539 224.293 68.2698C224.787 68.6385 225.184 69.1201 225.453 69.6741C225.721 70.2282 225.853 70.8386 225.837 71.4541C225.701 76.3383 221.793 88.2218 205.72 96.2659Z" fill="#2F4454" fill-opacity="0.7"/>
  <path d="M183.198 102.961C182.242 108.809 174.2 112.359 165.242 110.895C156.276 109.429 149.784 103.503 150.74 97.6558C150.922 96.5669 151.347 95.5332 151.984 94.6318C152.159 94.3877 152.42 94.2198 152.714 94.1625C153.008 94.1052 153.313 94.1629 153.566 94.3238C156.776 96.3332 161.856 98.1052 167.717 99.0633C173.111 99.9453 178.103 99.9585 181.736 99.2693C182.032 99.2126 182.338 99.2718 182.591 99.4348C182.845 99.5977 183.026 99.8519 183.097 100.145C183.315 101.068 183.35 102.025 183.198 102.961Z" fill="white"/>
  <path d="M166.201 91.3601C166.099 91.3602 165.999 91.3383 165.907 91.2957C165.814 91.2532 165.733 91.1911 165.667 91.1137C165.601 91.0364 165.553 90.9456 165.526 90.8478C165.498 90.75 165.493 90.6474 165.509 90.5471C165.744 89.1098 165.398 87.638 164.548 86.4555C163.698 85.273 162.413 84.4767 160.975 84.2418C159.538 84.0069 158.066 84.3525 156.884 85.2027C155.701 86.053 154.905 87.3381 154.67 88.7754C154.64 88.9586 154.539 89.1225 154.388 89.2308C154.237 89.3392 154.05 89.3832 153.866 89.3533C153.683 89.3233 153.519 89.2218 153.411 89.0711C153.303 88.9203 153.259 88.7327 153.288 88.5495C153.583 86.7457 154.583 85.1329 156.067 84.066C157.551 82.999 159.398 82.5652 161.201 82.8601C163.005 83.1549 164.618 84.1542 165.685 85.6382C166.752 87.1221 167.186 88.9692 166.891 90.7729C166.864 90.9367 166.78 91.0856 166.654 91.1932C166.527 91.3007 166.367 91.3599 166.201 91.3601Z" fill="white"/>
  <path d="M182.992 94.1053C182.89 94.1052 182.79 94.083 182.698 94.0404C182.606 93.9978 182.524 93.9357 182.458 93.8583C182.393 93.781 182.344 93.6904 182.317 93.5926C182.29 93.4949 182.284 93.3923 182.3 93.2921C182.529 91.8574 182.181 90.3904 181.33 89.2123C180.48 88.0342 179.197 87.2412 177.764 87.0068C176.33 86.7724 174.861 87.1158 173.68 87.9618C172.499 88.8078 171.701 90.0874 171.462 91.5204C171.447 91.6114 171.415 91.6986 171.366 91.777C171.318 91.8554 171.255 91.9236 171.18 91.9775C171.105 92.0314 171.021 92.07 170.931 92.0911C170.841 92.1123 170.748 92.1155 170.657 92.1006C170.566 92.0858 170.479 92.0531 170.401 92.0045C170.323 91.9559 170.255 91.8924 170.201 91.8175C170.148 91.7426 170.109 91.6579 170.088 91.5682C170.068 91.4784 170.065 91.3855 170.08 91.2946C170.38 89.4955 171.381 87.8885 172.863 86.8261C174.346 85.7636 176.189 85.3322 177.989 85.6264C179.789 85.9207 181.399 86.9166 182.466 88.3958C183.534 89.8751 183.971 91.7171 183.682 93.5181C183.655 93.6819 183.571 93.8308 183.445 93.9384C183.318 94.0459 183.158 94.1051 182.992 94.1053Z" fill="white"/>
</svg>