<svg xmlns="http://www.w3.org/2000/svg" width="11" height="15" viewBox="0 0 11 15" fill="none">
  <g clip-path="url(#clip0_336_2311)">
    <path d="M5.42622 0.801758C4.10158 0.801758 2.83126 1.32773 1.89461 2.26438C0.957952 3.20104 0.431641 4.47136 0.431641 5.79599C0.431641 9.79133 5.42622 14.7862 5.42622 14.7862C5.42622 14.7862 10.4208 9.79133 10.4208 5.79599C10.4209 5.14007 10.2918 4.49143 10.0408 3.88543C9.78983 3.27942 9.42197 2.72819 8.95816 2.26438C8.49436 1.80058 7.94347 1.43238 7.33746 1.18141C6.73146 0.930446 6.08213 0.801666 5.42622 0.801758ZM5.42622 7.79396C5.03117 7.79396 4.6451 7.67745 4.31661 7.458C3.98813 7.23856 3.7321 6.92571 3.58086 6.56076C3.42962 6.19582 3.38986 5.79425 3.46683 5.40678C3.5438 5.0193 3.73386 4.66333 4.01309 4.38389C4.29233 4.10446 4.64822 3.91487 5.03564 3.83763C5.42305 3.76039 5.82457 3.79863 6.18962 3.94961C6.55467 4.1006 6.86685 4.35738 7.08652 4.68571C7.3062 5.01404 7.42356 5.39958 7.42384 5.79463C7.42393 6.05706 7.37225 6.31691 7.27191 6.5594C7.17157 6.80189 7.0245 7.02246 6.83899 7.20809C6.65349 7.39372 6.43341 7.54049 6.19099 7.641C5.94857 7.74152 5.68865 7.79387 5.42622 7.79396Z" fill="#2E151B"/>
  </g>
  <defs>
    <clipPath id="clip0_336_2311">
      <rect width="10" height="13.9844" fill="white" transform="translate(0.425781 0.801758)"/>
    </clipPath>
  </defs>
</svg>