<svg xmlns="http://www.w3.org/2000/svg" width="24" height="26" viewBox="0 0 24 26" fill="none">
  <path d="M23.6387 22.9446L17.7203 16.7796C19.1498 14.7016 19.7766 12.1395 19.4762 9.60232C19.1758 7.06511 17.9702 4.73844 16.0988 3.08452C14.2274 1.43061 11.8273 0.570489 9.37514 0.675028C6.92302 0.779566 4.59836 1.84112 2.86299 3.64879C1.12763 5.45646 0.10854 7.87798 0.00818293 10.4323C-0.0921742 12.9866 0.733543 15.4867 2.3213 17.4361C3.90905 19.3854 6.14266 20.6413 8.57838 20.9542C11.0141 21.2671 13.4737 20.6142 15.4686 19.1251L21.387 25.2901C21.6941 25.5517 22.0836 25.6851 22.4798 25.6644C22.876 25.6438 23.2508 25.4705 23.5313 25.1783C23.8118 24.8861 23.9782 24.4957 23.998 24.083C24.0178 23.6702 23.8898 23.2645 23.6387 22.9446ZM2.94597 10.8741C2.94597 9.46126 3.34818 8.0801 4.10174 6.90533C4.8553 5.73055 5.92636 4.81493 7.17949 4.27424C8.43261 3.73355 9.81152 3.59208 11.1418 3.86772C12.4721 4.14336 13.6941 4.82373 14.6532 5.8228C15.6123 6.82186 16.2655 8.09474 16.5301 9.48048C16.7947 10.8662 16.6589 12.3026 16.1398 13.6079C15.6208 14.9133 14.7418 16.0289 13.614 16.8139C12.4862 17.5989 11.1603 18.0178 9.80391 18.0178C7.98507 18.0178 6.24073 17.2652 4.95461 15.9255C3.6685 14.5858 2.94597 12.7688 2.94597 10.8741Z" fill="white"/>
</svg>