<svg xmlns="http://www.w3.org/2000/svg" width="23" height="23" viewBox="0 0 23 23" fill="none">
<path d="M21.8636 19.9738L16.9014 15.0115C18.1 13.3389 18.6255 11.2767 18.3737 9.23449C18.1218 7.19227 17.1109 5.31952 15.5419 3.98827C13.9728 2.65703 11.9604 1.96471 9.90448 2.04885C7.84851 2.133 5.89941 2.98745 4.44441 4.44245C2.9894 5.89746 2.13495 7.84655 2.05081 9.90252C1.96666 11.9585 2.65898 13.9709 3.99022 15.5399C5.32147 17.109 7.19422 18.1198 9.23644 18.3717C11.2787 18.6236 13.3409 18.098 15.0135 16.8994L19.9757 21.8617C20.2332 22.0722 20.5598 22.1796 20.892 22.163C21.2242 22.1463 21.5384 22.0069 21.7736 21.7717C22.0088 21.5365 22.1483 21.2223 22.1649 20.8901C22.1816 20.5578 22.0742 20.2313 21.8636 19.9738ZM4.51398 10.2582C4.51398 9.12095 4.85121 8.00924 5.48303 7.06366C6.11484 6.11808 7.01287 5.38109 8.06355 4.94588C9.11422 4.51068 10.2704 4.39681 11.3857 4.61867C12.5011 4.84054 13.5257 5.38817 14.3298 6.19232C15.134 6.99648 15.6816 8.02103 15.9035 9.13642C16.1254 10.2518 16.0115 11.4079 15.5763 12.4586C15.1411 13.5093 14.4041 14.4073 13.4585 15.0391C12.5129 15.671 11.4012 16.0082 10.264 16.0082C8.73898 16.0082 7.27645 15.4024 6.19811 14.3241C5.11978 13.2457 4.51398 11.7832 4.51398 10.2582Z" fill="#696969"/>
</svg>