<svg width="36" height="44" viewBox="0 0 36 44" fill="none" xmlns="http://www.w3.org/2000/svg">
<g id="User 04c">
<g id="User 04c_2">
<path id="Rectangle" d="M33.333 33.167C34.5552 35.5003 35.1663 44.0003 35.1663 44.0003H0.833008C0.833008 44.0003 1.44417 35.5003 2.66634 33.167C4.49967 29.667 17.9997 25.167 17.9997 25.167C17.9997 25.167 31.4997 29.667 33.333 33.167Z" fill="url(#paint0_linear_734_726)"/>
<path id="Combined Shape" d="M17.333 40.0003C17.333 39.8685 17.3721 39.7396 17.4454 39.6299C17.5186 39.5203 17.6227 39.4349 17.7446 39.3844C17.8664 39.3339 18.0004 39.3207 18.1297 39.3465C18.2591 39.3722 18.3778 39.4357 18.4711 39.5289C18.5643 39.6222 18.6278 39.7409 18.6535 39.8703C18.6793 39.9996 18.6661 40.1336 18.6156 40.2554C18.5651 40.3773 18.4797 40.4814 18.3701 40.5546C18.2604 40.6279 18.1315 40.667 17.9997 40.667C17.8229 40.667 17.6533 40.5968 17.5283 40.4717C17.4032 40.3467 17.333 40.1771 17.333 40.0003ZM17.333 36.667C17.333 36.5351 17.3721 36.4062 17.4454 36.2966C17.5186 36.187 17.6227 36.1015 17.7446 36.0511C17.8664 36.0006 18.0004 35.9874 18.1297 36.0131C18.2591 36.0389 18.3778 36.1024 18.4711 36.1956C18.5643 36.2888 18.6278 36.4076 18.6535 36.5369C18.6793 36.6663 18.6661 36.8003 18.6156 36.9221C18.5651 37.0439 18.4797 37.1481 18.3701 37.2213C18.2604 37.2946 18.1315 37.3337 17.9997 37.3337C17.8229 37.3337 17.6533 37.2634 17.5283 37.1384C17.4032 37.0134 17.333 36.8438 17.333 36.667ZM17.333 33.3337C17.333 33.2018 17.3721 33.0729 17.4454 32.9633C17.5186 32.8536 17.6227 32.7682 17.7446 32.7177C17.8664 32.6673 18.0004 32.6541 18.1297 32.6798C18.2591 32.7055 18.3778 32.769 18.4711 32.8623C18.5643 32.9555 18.6278 33.0743 18.6535 33.2036C18.6793 33.3329 18.6661 33.467 18.6156 33.5888C18.5651 33.7106 18.4797 33.8147 18.3701 33.888C18.2604 33.9612 18.1315 34.0003 17.9997 34.0003C17.8229 34.0003 17.6533 33.9301 17.5283 33.8051C17.4032 33.68 17.333 33.5105 17.333 33.3337Z" fill="white"/>
<path id="Combined Shape_2" d="M32.2451 23.2353L5.1689 19.9631C3.83401 12.8767 5.41735 8.41187 9.9189 6.56865C11.9999 -0.249851 20.0994 0.304816 22.3952 0.860649C30.2078 2.75243 33.4911 10.2106 32.2451 23.2353Z" fill="url(#paint1_linear_734_726)"/>
<path id="Mask" d="M13.9997 27.1666V17.1666C9.82949 17.1043 10.6428 9.87795 14.833 12.0833C15.583 12.4166 17.4997 11.5 16.833 9.24995C21.333 12.5833 27.6037 6.73329 27.9997 10.3333C28.7788 17.4185 27.2712 23.242 23.2733 23.2423C22.8473 23.2585 22.4207 23.2332 21.9997 23.1666V27.1666C20.6947 27.9444 19.3897 28.3333 18.0847 28.3333C16.7797 28.3333 15.418 27.9444 13.9997 27.1666Z" fill="#FFDBC9"/>
<path id="Path 2" d="M21.9993 23.167V24.5003C19.4993 24.5003 17.5549 23.3059 16.166 20.917C17.8327 22.0281 19.7771 22.7781 21.9993 23.167Z" fill="#FFBC9E"/>
<path id="Combined Shape_3" d="M17.9938 28.1628C19.134 28.1083 21.9993 27.5183 21.9993 26.2437V25.167C22.305 25.167 23.1802 25.889 23.6303 26.5003C25.4097 28.917 23.436 31.0837 21.8263 31.0837C19.7953 31.0837 18.4493 29.3867 17.9993 28.5703C17.5493 29.387 16.2033 31.0837 14.1723 31.0837C12.5627 31.0837 10.589 28.917 12.3683 26.5003C12.8185 25.889 13.6937 25.167 13.9993 25.167V26.2437C13.9993 27.5183 16.7893 28.1083 17.9938 28.1628Z" fill="white"/>
</g>
</g>
<defs>
<linearGradient id="paint0_linear_734_726" x1="17.9997" y1="25.167" x2="17.9997" y2="44.0003" gradientUnits="userSpaceOnUse">
<stop stop-color="#1D0024"/>
<stop offset="1" stop-color="#100014"/>
</linearGradient>
<linearGradient id="paint1_linear_734_726" x1="18.6065" y1="23.2353" x2="18.6065" y2="0.555664" gradientUnits="userSpaceOnUse">
<stop stop-color="#E6864E"/>
<stop offset="1" stop-color="#E67240"/>
</linearGradient>
</defs>
</svg>
