<svg width="33" height="32" viewBox="0 0 33 32" fill="none" xmlns="http://www.w3.org/2000/svg">
<path id="Vector" d="M28.9444 15.9557C28.9444 12.4986 27.7367 9.56572 25.3213 7.15701C22.9071 4.74947 19.9667 3.54571 16.5 3.54571V0C18.7222 0 20.804 0.420757 22.7453 1.26227C24.6855 2.10497 26.3744 3.24314 27.812 4.67679C29.2484 6.10925 30.3892 7.79346 31.2342 9.72942C32.0781 11.6642 32.5 13.7396 32.5 15.9557H28.9444ZM21.8333 15.9557C21.8333 14.4783 21.3148 13.2225 20.2778 12.1884C19.2407 11.1542 17.9815 10.6371 16.5 10.6371V7.09141C18.9593 7.09141 21.0559 7.95538 22.7898 9.68332C24.5225 11.4124 25.3889 13.5032 25.3889 15.9557H21.8333ZM30.6333 32C26.8111 32 23.0855 31.1502 19.4564 29.4506C15.8262 27.7522 12.6114 25.5066 9.812 22.7138C7.01141 19.9221 4.75956 16.7162 3.05644 13.0961C1.35215 9.47708 0.5 5.76177 0.5 1.95014C0.5 1.41828 0.677778 0.975069 1.03333 0.620498C1.38889 0.265928 1.83333 0.0886426 2.36667 0.0886426H9.56667C9.98148 0.0886426 10.3519 0.221606 10.6778 0.487534C11.0037 0.753462 11.1963 1.09326 11.2556 1.50693L12.4111 7.71191C12.4704 8.12558 12.4633 8.50201 12.3898 8.84122C12.3151 9.18161 12.1444 9.48477 11.8778 9.75069L7.61111 14.0942C8.85556 16.2216 10.4111 18.2161 12.2778 20.0776C14.1444 21.9391 16.2037 23.5494 18.4556 24.9086L22.6333 20.7424C22.9 20.4765 23.2484 20.2767 23.6787 20.1432C24.1077 20.0108 24.5296 19.9741 24.9444 20.0332L31.0778 21.2742C31.4926 21.3629 31.8333 21.562 32.1 21.8717C32.3667 22.1825 32.5 22.5448 32.5 22.9584V30.1385C32.5 30.6704 32.3222 31.1136 31.9667 31.4681C31.6111 31.8227 31.1667 32 30.6333 32Z" fill="white"/>
</svg>
