<svg xmlns="http://www.w3.org/2000/svg" width="802" height="794" viewBox="0 0 802 794" fill="none">
  <path fill-rule="evenodd" clip-rule="evenodd" d="M60.071 -211.746C199.069 -234.885 329.108 -382.939 456.977 -323.688C583.891 -264.881 564.919 -76.6434 624.669 49.8703C682.716 172.778 805.693 270.256 801.656 406.125C797.431 548.287 711.335 679.607 603.212 771.938C499.278 860.692 360.511 891.142 224.1 899.324C97.1346 906.939 -40.9682 897.753 -138.82 816.445C-230.362 740.38 -205.331 594.523 -265.984 492.098C-334.89 375.735 -499.218 317.902 -513.671 183.434C-528.758 43.0713 -455.639 -111.06 -339.418 -191.11C-226.842 -268.65 -74.7585 -189.301 60.071 -211.746Z" fill="#DA7893" fill-opacity="0.3"/>
</svg>