<svg xmlns="http://www.w3.org/2000/svg" width="297" height="282" viewBox="0 0 297 282" fill="none">
  <path d="M-132.169 235.057L-132.114 235.02C-136.842 228.121 -138.935 219.478 -138.933 210.694C-138.933 202.997 -137.332 195.184 -134.477 188.275C-128.368 173.509 -117.522 162.292 -106.347 152.582C-85.8627 134.788 -63.1167 120.535 -39.0782 110.431C-35.9155 109.103 -32.7225 107.839 -29.5303 106.576C-17.4614 101.801 -5.40277 97.0304 4.97086 88.7593C16.72 79.4081 26.1414 64.0378 26.128 47.9871C26.128 46.1293 26.0025 44.2599 25.7407 42.3879C25.2977 39.2129 24.4995 35.8873 23.6954 32.5373C23.4917 31.6886 23.2877 30.8383 23.0889 29.9886C22.1076 25.7805 21.2533 21.5819 21.2507 17.5745C21.2467 13.7666 22.0447 10.107 24.2666 6.93607C27.3344 2.55685 32.1117 0.947784 36.9267 0.949341C39.3634 0.949341 41.8236 1.3595 44.1182 2.04404C56.7491 5.823 66.8763 15.5538 76.9161 25.3465L77.4723 25.8898C87.3188 35.5089 97.1245 45.088 109.057 49.2581C113.843 50.9323 118.571 51.6691 123.272 51.6691C139.58 51.6769 155.573 42.7461 171.858 33.2001C172.642 32.741 173.427 32.2805 174.213 31.8195C189.728 22.718 205.536 13.444 222.28 11.3268L222.344 12.0297L222.41 12.7369C205.875 14.8153 190.083 24.0862 174.49 33.2399C173.789 33.6513 173.089 34.0625 172.389 34.4727C156.086 44.0151 139.967 53.0789 123.272 53.0881C118.466 53.0881 113.616 52.3329 108.717 50.6172C96.565 46.3597 86.7196 36.7516 76.9467 27.2143C76.6822 26.9561 76.4177 26.698 76.1532 26.4401C66.1237 16.6459 56.1122 7.08472 43.8257 3.42044C41.6177 2.76065 39.2486 2.36829 36.9267 2.36829C32.3151 2.36987 27.9362 3.9072 25.192 7.83914C23.1766 10.7253 22.4547 13.9857 22.4507 17.5745C22.4493 21.3395 23.2697 25.4395 24.2457 29.6122C24.4465 30.4719 24.6536 31.3345 24.8611 32.1983C25.6616 35.5319 26.4666 38.884 26.9246 42.1565C27.1975 44.1077 27.328 46.0547 27.328 47.9871C27.3134 64.7174 17.6253 80.3778 5.64114 89.9369C-4.90451 98.3329 -17.0339 103.129 -29.0817 107.894C-32.2968 109.165 -35.5061 110.434 -38.6779 111.769C-62.6046 121.826 -85.2493 136.012 -105.637 153.724C-116.761 163.385 -127.442 174.478 -133.399 188.898C-136.177 195.615 -137.735 203.231 -137.733 210.694C-137.733 219.218 -135.707 227.528 -131.183 234.128L-131.128 234.091L-131.183 234.128C-127.195 239.943 -121.98 243.729 -116.065 246.076L-116.04 246.014L-116.065 246.076C-110.153 248.419 -103.547 249.307 -96.844 249.307C-91.1032 249.307 -85.2899 248.657 -79.7809 247.722C-44.8109 241.794 -10.58 229.98 21.5141 212.76C23.0967 211.912 24.6817 211.048 26.271 210.181C38.1774 203.689 50.3258 197.064 63.5245 196.141C64.3151 196.087 65.1095 196.059 65.9066 196.059C73.0842 196.061 80.4816 198.263 86.5968 202.476C92.7062 206.686 97.5448 212.936 99.4872 221.014C100.281 224.331 100.553 227.715 100.711 231.092C100.755 232.027 100.79 232.963 100.824 233.896C100.915 236.329 101.006 238.748 101.25 241.122C102.711 255.533 110.312 269.209 121.448 275.649C125.965 278.266 131.04 279.58 136.101 279.58C143.504 279.58 150.866 276.769 156.434 271.171C164.575 262.985 167.759 251.439 169.414 238.7C170.142 233.11 170.57 227.302 171 221.477C171.06 220.67 171.119 219.862 171.18 219.055C171.676 212.42 172.228 205.798 173.279 199.481C177.884 171.86 195.383 149.157 216.703 137.082C224.961 132.413 234.762 130.283 244.582 128.148C246.402 127.752 248.222 127.357 250.033 126.945C261.618 124.318 272.805 121.025 281.038 113.065C291.242 103.199 295.407 92.1449 295.415 81.0075C295.428 64.1565 285.743 46.9734 272.277 34.0444C258.824 21.1098 241.618 12.452 226.856 12.4629C225.392 12.4629 223.952 12.5472 222.543 12.7204L222.477 12.0174L222.412 11.3102C223.867 11.1312 225.35 11.0439 226.856 11.0439C242.014 11.0532 259.387 19.8401 273.034 32.9422C286.666 46.0498 296.6 63.4927 296.615 81.0075C296.621 92.5735 292.222 104.109 281.798 114.165C273.259 122.401 261.88 125.693 250.259 128.337C248.49 128.738 246.715 129.124 244.943 129.51C235.076 131.656 225.303 133.782 217.222 138.363C196.188 150.269 178.96 172.671 174.456 199.753C173.418 205.98 172.871 212.554 172.376 219.179C172.317 219.962 172.259 220.746 172.201 221.531C171.769 227.38 171.336 233.242 170.601 238.916C168.932 251.775 165.681 263.732 157.21 272.25C151.392 278.098 143.755 280.998 136.101 280.999C130.865 280.998 125.615 279.641 120.92 276.924C109.375 270.23 101.575 256.166 100.058 241.289C99.8097 238.819 99.7154 236.342 99.6218 233.885C99.5872 232.977 99.5527 232.072 99.5106 231.17C99.3546 227.832 99.0937 224.549 98.3328 221.402C96.4912 213.745 91.9018 207.777 85.9925 203.702C80.0891 199.629 72.8771 197.476 65.9066 197.478C65.1319 197.478 64.361 197.504 63.5954 197.559C63.5954 197.559 63.5953 197.559 63.5953 197.559L63.6 197.626L-132.169 235.057ZM-132.169 235.057L-132.114 235.02C-127.964 241.077 -122.524 245.014 -116.446 247.42L-116.471 247.482L-132.169 235.057Z" fill="white" stroke="#2E151B" stroke-width="0.133333"/>
</svg>