<svg xmlns="http://www.w3.org/2000/svg" width="24" height="26" viewBox="0 0 24 26" fill="none">
  <path d="M3.38477 20.2669V5.33353C3.38477 4.76773 3.58711 4.22511 3.94728 3.82503C4.30746 3.42496 4.79596 3.2002 5.30533 3.2002H18.7492C19.2586 3.2002 19.7471 3.42496 20.1073 3.82503C20.4675 4.22511 20.6698 4.76773 20.6698 5.33353V20.2669C20.6698 20.8327 20.4675 21.3753 20.1073 21.7754C19.7471 22.1754 19.2586 22.4002 18.7492 22.4002H5.30533C4.79596 22.4002 4.30746 22.1754 3.94728 21.7754C3.58711 21.3753 3.38477 20.8327 3.38477 20.2669Z" stroke="#C4AF1B" stroke-width="1.5"/>
  <path d="M17.7883 14.9337V10.6671M12.5068 10.1337L13.467 9.06706M7.70537 10.1337L6.74509 9.06706M6.74509 16.5337L7.70537 15.4671M13.467 16.5337L12.5068 15.4671M2.42383 8.53372H3.38411M2.42383 6.40039H3.38411M3.38411 17.0671H2.42383M3.38411 19.2004H2.42383M10.1061 16.0004C9.34202 16.0004 8.60927 15.6632 8.06901 15.0631C7.52874 14.463 7.22523 13.6491 7.22523 12.8004C7.22523 11.9517 7.52874 11.1378 8.06901 10.5376C8.60927 9.93753 9.34202 9.60039 10.1061 9.60039C10.8701 9.60039 11.6029 9.93753 12.1431 10.5376C12.6834 11.1378 12.9869 11.9517 12.9869 12.8004C12.9869 13.6491 12.6834 14.463 12.1431 15.0631C11.6029 15.6632 10.8701 16.0004 10.1061 16.0004Z" stroke="#C4AF1B" stroke-width="1.5" stroke-linecap="round" stroke-linejoin="round"/>
</svg>