<svg xmlns="http://www.w3.org/2000/svg" width="609" height="517" viewBox="0 0 609 517" fill="none">
  <path d="M143.85 31.054C221.744 -16.8718 305.896 4.71501 384.448 24.8652C389.242 26.095 394.015 27.3194 398.764 28.5223C401.371 29.1826 403.986 29.8425 406.606 30.5037C445.564 40.3361 485.69 50.463 519.563 66.6436C555.686 83.8988 584.477 107.937 597.124 145.611C624.021 225.728 593.746 328.454 525.247 404.815C494.434 439.165 455.318 458.636 412.869 471.376C378.66 481.642 342.393 487.51 306.621 493.298C297.965 494.699 289.339 496.095 280.777 497.547C274.048 498.689 267.272 499.873 260.472 501.061C224.734 507.307 188.321 513.67 154.43 514.589C114.101 515.682 77.6414 509.048 50.3446 485.563C21.8042 461.008 7.92749 426.959 3.30709 388.653C-1.31622 350.323 3.34211 307.815 11.8109 266.521C29.7202 179.196 60.1924 82.5256 143.85 31.054Z" stroke="url(#paint0_linear_270_2655)" stroke-width="3"/>
  <defs>
    <linearGradient id="paint0_linear_270_2655" x1="153.253" y1="23.2978" x2="437.148" y2="471.276" gradientUnits="userSpaceOnUse">
      <stop offset="0.125" stop-color="#558485"/>
      <stop offset="0.578125" stop-color="#2E151B"/>
      <stop offset="1" stop-color="#DA7893"/>
    </linearGradient>
  </defs>
</svg>