<svg xmlns="http://www.w3.org/2000/svg" width="45" height="45" viewBox="0 0 45 45" fill="none">
  <g clip-path="url(#clip0_270_2185)">
    <rect width="32" height="32" transform="translate(17.667 0.448242) rotate(32.4188)" fill="url(#paint0_linear_270_2185)" fill-opacity="0.9"/>
    <path d="M7.46252 23.9778L17.4698 8.22031C17.849 7.62329 18.4498 7.20134 19.14 7.04729C19.8303 6.89323 20.5535 7.01969 21.1505 7.39885L36.908 17.4061C37.505 17.7853 37.927 18.3861 38.081 19.0763C38.2351 19.7666 38.1086 20.4898 37.7294 21.0868L27.7222 36.8443C27.343 37.4413 26.7422 37.8633 26.0519 38.0173C25.3617 38.1714 24.6385 38.0449 24.0415 37.6658L8.28398 27.6585C7.68696 27.2793 7.26501 26.6785 7.11095 25.9883C6.9569 25.298 7.08336 24.5748 7.46252 23.9778Z" stroke="white" stroke-width="1.5"/>
    <path d="M27.919 29.072L30.7783 24.5699M24.9452 20.0757L26.7855 19.665M19.3175 16.5017L18.9068 14.6613M13.9032 22.5401L15.7435 22.1293M21.7819 27.5437L21.3712 25.7034M14.1993 10.8819L15.3248 11.5967M15.6289 8.63086L16.7544 9.34567M9.60638 20.601L8.48085 19.8862M8.17677 22.8521L7.05123 22.1373M18.1999 24.4791C17.3044 23.9104 16.6715 23.0092 16.4404 21.9738C16.2093 20.9384 16.399 19.8536 16.9677 18.9581C17.5365 18.0626 18.4377 17.4296 19.4731 17.1986C20.5085 16.9675 21.5932 17.1572 22.4888 17.7259C23.3843 18.2946 24.0172 19.1958 24.2483 20.2312C24.4794 21.2666 24.2897 22.3514 23.721 23.2469C23.1522 24.1425 22.251 24.7754 21.2156 25.0065C20.1803 25.2376 19.0955 25.0479 18.1999 24.4791Z" stroke="white" stroke-width="1.5" stroke-linecap="round" stroke-linejoin="round"/>
  </g>
  <defs>
    <linearGradient id="paint0_linear_270_2185" x1="2.39176" y1="2.85222" x2="42.9044" y2="5.83036" gradientUnits="userSpaceOnUse">
      <stop stop-color="#DA7893"/>
      <stop offset="0.557292" stop-color="#2E151B"/>
    </linearGradient>
    <clipPath id="clip0_270_2185">
      <rect width="32" height="32" fill="white" transform="translate(17.667 0.448242) rotate(32.4188)"/>
    </clipPath>
  </defs>
</svg>