<svg width="147" height="179" viewBox="0 0 147 179" fill="none" xmlns="http://www.w3.org/2000/svg">
<g id="User 03C">
<g id="Group 7">
<path id="Combined Shape" d="M60.1946 118.249C65.9682 108.65 79.2237 90.2484 110.786 64.3921C158.413 25.3755 113.462 -10.3118 65.1731 8.69511C60.0074 10.7286 45.6926 2.58805 32.4326 11.1642C23.8788 16.6965 27.2077 21.0321 23.8771 25.3677C20.5465 29.7034 7.70586 29.4482 4.89288 40.7062C3.22688 47.3761 7.83721 54.3625 7.22056 59.3827C6.60391 64.4029 1.73697 68.9281 1.50478 75.5554C1.40426 78.3546 1.85616 81.1461 2.83466 83.7706C3.81317 86.3951 5.29911 88.8011 7.20761 90.8512C9.11612 92.9013 11.4098 94.5553 13.9577 95.7189C16.5055 96.8824 19.2576 97.5326 22.0568 97.6323C22.0797 103.166 24.2404 108.477 28.0874 112.455C31.9344 116.433 37.1699 118.77 42.6998 118.978C46.2457 119.107 49.7674 118.344 52.9418 116.759C56.0915 119.662 58.7955 120.575 60.1946 118.249Z" fill="url(#paint0_linear_734_790)"/>
<g id="Group 6">
<path id="Mask" d="M61.3333 108.334C61.3333 102.334 61.1293 72.739 61.1393 72.239C44.6666 74.667 45 43.3337 61.6666 51.0003C65.3333 53.3337 75.6666 51.0003 74.6666 31.667C92.6666 51.0003 113.565 28.451 115.357 46.8257C117.804 71.9157 115.342 98.173 99.7493 98.175C98.0435 98.1544 96.3428 97.9844 94.6666 97.667V108.334C94.6666 115 106.667 118.334 106.667 118.334C106.667 118.334 85.9386 137.867 77.3333 137.759C68.728 137.651 49.3333 118.334 49.3333 118.334C49.3333 118.334 61.3333 115 61.3333 108.334Z" fill="url(#paint1_linear_734_790)"/>
<g id="Group 6_2">
<path id="Path 2" style="mix-blend-mode:multiply" opacity="0.7" d="M94.6662 97.6637C86.3955 95.8294 78.5582 92.4112 71.5869 87.5977C71.5869 87.5977 77.339 101.66 94.6448 104.328L94.6662 97.6637Z" fill="url(#paint2_linear_734_790)"/>
</g>
</g>
<g id="Combined Shape_2">
<g id="Combined Shape_3">
<path id="Mask_2" d="M139.333 138.333C144.17 149.081 146.666 181.667 146.666 181.667H9.33301C9.33301 181.667 11.8297 149.081 16.6663 138.333C20.9037 128.918 48.8257 118.107 57.0083 115C61.733 120.285 68.5037 123.667 77.9997 123.667C87.4957 123.667 94.2663 120.285 98.991 115C107.174 118.107 135.096 128.918 139.333 138.333Z" fill="url(#paint3_linear_734_790)"/>
</g>
<path id="Rectangle" d="M15.3831 138.55C19.0111 131.651 30.9518 124.412 41.9931 119.533C47.4998 117.099 63.9998 187 63.9998 187H8.72181C8.72181 187 8.05581 152.484 15.3831 138.55Z" fill="url(#paint4_linear_734_790)"/>
</g>
</g>
</g>
<defs>
<linearGradient id="paint0_linear_734_790" x1="68.0769" y1="2.56081" x2="63.9703" y2="119.777" gradientUnits="userSpaceOnUse">
<stop stop-color="#1D0024"/>
<stop offset="1" stop-color="#100014"/>
</linearGradient>
<linearGradient id="paint1_linear_734_790" x1="82.5733" y1="31.667" x2="82.5733" y2="137.759" gradientUnits="userSpaceOnUse">
<stop stop-color="#E6864E"/>
<stop offset="1" stop-color="#EB965E"/>
</linearGradient>
<linearGradient id="paint2_linear_734_790" x1="75.9454" y1="90.7437" x2="79.4036" y2="106.3" gradientUnits="userSpaceOnUse">
<stop stop-color="#E68349"/>
<stop offset="1" stop-color="#F09960"/>
</linearGradient>
<linearGradient id="paint3_linear_734_790" x1="77.9997" y1="181.667" x2="77.9997" y2="115" gradientUnits="userSpaceOnUse">
<stop stop-color="#FFC9B3"/>
<stop offset="1" stop-color="#FFD2C2"/>
</linearGradient>
<linearGradient id="paint4_linear_734_790" x1="36.3529" y1="187" x2="36.3529" y2="119.471" gradientUnits="userSpaceOnUse">
<stop stop-color="#FCF2EB"/>
<stop offset="1" stop-color="#FFF9F5"/>
</linearGradient>
</defs>
</svg>
