<svg xmlns="http://www.w3.org/2000/svg" width="134" height="169" viewBox="0 0 134 169" fill="none">
  <path d="M114.142 78.6117C119.36 61.2796 122.577 31.6483 100.632 11.3833C83.8599 -4.10427 38.5499 -5.66499 22.7883 28.11C20.157 33.7482 23.7533 42.585 30.8299 42.2633C33.6111 42.1347 35.3333 50.9483 36.9416 56.4167C34.6899 78.6117 14.6295 79.0215 4.45327 95.9817C-8.09173 116.89 7.34826 147.77 44.3399 147.77C81.3316 147.77 102.537 117.151 114.142 78.6117Z" fill="url(#paint0_linear_705_812)"/>
  <path d="M126.686 129.113C131.404 138.12 133.763 170.93 133.763 170.93H1.23633C1.23633 170.93 3.59543 138.12 8.313 129.113C15.3897 115.603 67.4997 98.2334 67.4997 98.2334C67.4997 98.2334 119.61 115.603 126.686 129.113Z" fill="url(#paint1_linear_705_812)"/>
  <path d="M82.9395 105.953C82.9395 105.953 74.7267 110.457 67.1714 110.457C59.6161 110.457 52.0595 105.953 52.0595 105.953V91.8002C50.4341 92.0571 48.7876 92.1549 47.1432 92.0922C31.7109 92.091 25.8919 69.6122 28.8995 42.2635C30.8295 42.2635 35.3329 42.2635 41.7662 33.2568C40.1579 45.8018 58.8145 43.8718 65.8912 33.9002C62.3529 45.8018 71.6812 53.8435 79.7229 49.0185C95.4916 39.557 99.0364 68.3996 82.9395 68.6402V105.953Z" fill="url(#paint2_linear_705_812)"/>
  <path d="M52.0596 91.8002C60.04 90.331 67.6762 87.3856 74.5762 83.1152C74.5762 83.1152 66.5346 96.9469 52.0596 96.9469V91.8002Z" fill="#FFB597"/>
  <path d="M67.5215 109.797C72.1709 109.587 82.9403 107.31 82.9403 102.389V98.2334C84.1201 98.2334 87.4983 101.02 89.2359 103.38C96.1041 112.708 88.4858 121.072 82.2725 121.072C74.4328 121.072 69.2373 114.521 67.5003 111.37C65.7633 114.523 60.5677 121.072 52.7281 121.072C46.5148 121.072 38.8964 112.708 45.7646 103.38C47.5023 101.02 50.8804 98.2334 52.0603 98.2334V102.389C52.0603 107.31 63.1205 109.587 67.5215 109.797Z" fill="white"/>
  <defs>
    <linearGradient id="paint0_linear_705_812" x1="59.0608" y1="147.77" x2="59.0608" y2="0.825195" gradientUnits="userSpaceOnUse">
      <stop stop-color="#E6864E"/>
      <stop offset="1" stop-color="#E67240"/>
    </linearGradient>
    <linearGradient id="paint1_linear_705_812" x1="67.4997" y1="170.93" x2="67.4997" y2="98.2334" gradientUnits="userSpaceOnUse">
      <stop stop-color="#FFC9B3"/>
      <stop offset="1" stop-color="#FFD2C2"/>
    </linearGradient>
    <linearGradient id="paint2_linear_705_812" x1="60.7745" y1="33.2568" x2="60.7745" y2="110.457" gradientUnits="userSpaceOnUse">
      <stop stop-color="#FFD4B3"/>
      <stop offset="1" stop-color="#FFDCC2"/>
    </linearGradient>
  </defs>
</svg>